<?xml version="1.0" encoding="UTF-8"?>
<svg width="22px" height="20px" viewBox="0 0 22 20" version="1.1" xmlns="http://www.w3.org/2000/svg" xmlns:xlink="http://www.w3.org/1999/xlink">
    <!-- Generator: sketchtool 49.3 (51167) - http://www.bohemiancoding.com/sketch -->
    <title>1DC6F070-6D71-44A1-9847-41D80AAFA302</title>
    <desc>Created with sketchtool.</desc>
    <defs>
        <path d="M10,2 L10,18 L12,18 L12,2 L10,2 Z M9,0 L13,0 C13.5522847,0 14,0.44771525 14,1 L14,19 C14,19.5522847 13.5522847,20 13,20 L9,20 C8.44771525,20 8,19.5522847 8,19 L8,1 C8,0.44771525 8.44771525,0 9,0 Z M17,5 L21,5 C21.5522847,5 22,5.44771525 22,6 L22,19 C22,19.5522847 21.5522847,20 21,20 L17,20 C16.4477153,20 16,19.5522847 16,19 L16,6 C16,5.44771525 16.4477153,5 17,5 Z M1,10 L5,10 C5.55228475,10 6,10.4477153 6,11 L6,19 C6,19.5522847 5.55228475,20 5,20 L1,20 C0.44771525,20 0,19.5522847 0,19 L0,11 C0,10.4477153 0.44771525,10 1,10 Z M18,7 L18,18 L20,18 L20,7 L18,7 Z M2,18 L4,18 L4,12 L2,12 L2,18 Z" id="path-1"></path>
    </defs>
    <g id="Web" stroke="none" stroke-width="1" fill="none" fill-rule="evenodd">
        <g id="Amenities" transform="translate(-487.000000, -94.000000)">
            <g id="Header">
                <g id="Menu" transform="translate(487.000000, 92.000000)">
                    <g id="Analytics">
                        <g id="bar-chart-2" transform="translate(0.000000, 2.000000)">
                            <mask id="mask-2" fill="white">
                                <use xlink:href="#path-1"></use>
                            </mask>
                            <use id="Combined-Shape" fill="#BCBCBC" fill-rule="nonzero" xlink:href="#path-1"></use>
                        </g>
                    </g>
                </g>
            </g>
        </g>
    </g>
</svg>