<?xml version="1.0" encoding="UTF-8"?>
<svg width="160px" height="160px" viewBox="0 0 160 160" version="1.1" xmlns="http://www.w3.org/2000/svg" xmlns:xlink="http://www.w3.org/1999/xlink">
    <!-- Generator: sketchtool 52.2 (67145) - http://www.bohemiancoding.com/sketch -->
    <title>84D2DD1F-E6E4-44CD-B0B4-A6A29E9B593F</title>
    <desc>Created with sketchtool.</desc>
    <g id="Web" stroke="none" stroke-width="1" fill="none" fill-rule="evenodd">
        <g id="Analytics-&gt;-Overview" transform="translate(-111.000000, -368.000000)" fill-rule="nonzero">
            <g id="chart-orange" transform="translate(111.000000, 368.000000)">
                <g id="Path-4-Copy-2">
                    <path d="M7.24614942,113.316449 C2.59369851,103.173388 0,91.8895891 0,80 C0,50.0133613 16.4983827,23.8801263 40.9130621,10.182381 L72.1237809,69.7320187 L76.3822951,78.0898234 L7.24614942,113.316449 Z" id="Path" fill="#FAC56F"></path>
                    <path d="M9.00483215,116.90966 L79.9802702,80.7458685 C80.2297548,80.6187497 80.4411423,80.4464634 80.609547,80.244046 C80.9434983,79.9039416 81.1603666,79.4308738 81.1603666,78.8494071 L81.1603666,0.00824400289 C124.808187,0.628804883 160,36.2046583 160,80 C160,124.18278 124.18278,160 80,160 C49.1303101,160 22.3443169,142.515616 9.00483215,116.90966 Z" id="Path" fill="#FFAF30"></path>
                    <path d="M45.1447665,7.97196458 C54.8788333,3.25282514 65.7139002,0.448783411 77.1603666,0.0494572103 L77.1603666,70.7251099 L75.677354,67.8955415 L45.1447666,7.97196463 Z" id="Path" fill="#FFE9C6"></path>
                </g>
            </g>
        </g>
    </g>
</svg>