<?xml version="1.0" encoding="UTF-8"?>
<svg width="15px" height="8px" viewBox="0 0 15 8" version="1.1" xmlns="http://www.w3.org/2000/svg" xmlns:xlink="http://www.w3.org/1999/xlink">
    <!-- Generator: sketchtool 51 (57462) - http://www.bohemiancoding.com/sketch -->
    <title>E4AB9638-4A30-4AD3-8DCA-9F3577A70795</title>
    <desc>Created with sketchtool.</desc>
    <defs></defs>
    <g id="Web" stroke="none" stroke-width="1" fill-rule="evenodd">
        <g id="Rooms-&gt;-Select" transform="translate(-1309.000000, -213.000000)">
            <rect fill="none" x="0" y="0" width="1440" height="826"></rect>
            <g id="export-button" transform="translate(1210.000000, 198.000000)" fill="#ffffff">
                <path d="M112.875521,15.5086495 L112.875521,15.5086495 C113.156441,15.7810906 113.163314,16.2296779 112.890873,16.5105973 C112.885834,16.5157925 112.880717,16.5209102 112.875521,16.5259486 L106.896191,22.3248201 C106.508293,22.7010116 105.891707,22.7010116 105.503809,22.3248201 L99.5244785,16.5259486 C99.2435591,16.2535075 99.2366861,15.8049201 99.5091272,15.5240008 C99.5141656,15.5188056 99.5192833,15.5136879 99.5244785,15.5086495 L99.5244785,15.5086495 C99.8167034,15.2252441 100.281211,15.2252441 100.573436,15.5086495 L106.2,20.9654019 L111.826564,15.5086495 C112.118789,15.2252441 112.583297,15.2252441 112.875521,15.5086495 Z" id="Path-3-Copy"></path>
            </g>
        </g>
    </g>
</svg>
