<?xml version="1.0" encoding="utf-8"?>
<!-- Generator: Adobe Illustrator 22.0.1, SVG Export Plug-In . SVG Version: 6.00 Build 0)  -->
<svg version="1.1" id="Layer_1" xmlns="http://www.w3.org/2000/svg" xmlns:xlink="http://www.w3.org/1999/xlink" x="0px" y="0px"
	 viewBox="0 0 160 160.5" style="enable-background:new 0 0 160 160.5;" xml:space="preserve">
<style type="text/css">
	.st0{fill:#7A94EB;}
	.st1{fill:#3359DB;}
	.st2{fill:#C7D1F7;}
</style>
<g id="Web">
	<g id="Analytics-_x3E_-Overview" transform="translate(-461.000000, -268.000000)">
		<g id="Chart-blue" transform="translate(561.000000, 368.000000)">
			<g id="Path-4">
				<path id="Path" class="st0" d="M-95.9,6.6c-2.8-8.2-4.4-17-4.4-26.1c0-32.7,19.6-60.8,47.7-73.2l27.8,72L-95.9,6.6z"/>
				<path id="Path_1_" class="st1" d="M-94.5,10.4l73-28c0.7-0.2,1.3-0.9,1.3-1.8c0-0.1,0-0.1,0-0.2v-79.9c44.1,0,79.9,35.8,79.9,80
					c0,44.2-35.8,80-80,80C-53.9,60.5-82.7,39.8-94.5,10.4z"/>
				<path id="Path_2_" class="st2" d="M-48.7-94.3c7.7-2.9,15.9-4.7,24.6-5.1v69.1L-48.7-94.3z"/>
			</g>
		</g>
	</g>
</g>
</svg>
