<?xml version="1.0" encoding="UTF-8"?>
<svg width="18px" height="20px" viewBox="0 0 18 20" version="1.1" xmlns="http://www.w3.org/2000/svg" xmlns:xlink="http://www.w3.org/1999/xlink">
    <!-- Generator: sketchtool 52.1 (67048) - http://www.bohemiancoding.com/sketch -->
    <title>45994FEE-4076-4C9E-9E49-93CB444E9A9A</title>
    <desc>Created with sketchtool.</desc>
    <defs>
        <path d="M143,12 L142,12 L142,11 C142,10.45 141.55,10 141,10 C140.45,10 140,10.45 140,11 L140,12 L132,12 L132,11 C132,10.45 131.55,10 131,10 C130.45,10 130,10.45 130,11 L130,12 L129,12 C127.89,12 127.01,12.9 127.01,14 L127,28 C127,29.1 127.89,30 129,30 L143,30 C144.1,30 145,29.1 145,28 L145,14 C145,12.9 144.1,12 143,12 Z M143,27 C143,27.55 142.55,28 142,28 L130,28 C129.45,28 129,27.55 129,27 L129,17 L143,17 L143,27 Z M131,19 L133,19 L133,21 L131,21 L131,19 Z M135,19 L137,19 L137,21 L135,21 L135,19 Z M139,19 L141,19 L141,21 L139,21 L139,19 Z" id="path-1"></path>
    </defs>
    <g id="Web" stroke="none" stroke-width="1" fill="none" fill-rule="evenodd">
        <g id="Analytics-&gt;-Calendar-Options" transform="translate(-1277.000000, -204.000000)">
            <g id="Date-picker" transform="translate(1150.000000, 194.000000)">
                <mask id="mask-2" fill="white">
                    <use xlink:href="#path-1"></use>
                </mask>
                <use id="icon/action/date_range_24px" fill="#FFAF30" fill-rule="nonzero" xlink:href="#path-1"></use>
            </g>
        </g>
    </g>
</svg>