<?xml version="1.0" encoding="UTF-8"?>
<svg width="12px" height="14px" viewBox="0 0 12 14" version="1.1" xmlns="http://www.w3.org/2000/svg" xmlns:xlink="http://www.w3.org/1999/xlink">
    <!-- Generator: sketchtool 51.2 (57519) - http://www.bohemiancoding.com/sketch -->
    <title>1B471942-199B-4FE9-9361-1193357B8AC0</title>
    <desc>Created with sketchtool.</desc>
    <defs></defs>
    <g id="Web" stroke="none" stroke-width="1" fill="none" fill-rule="evenodd">
        <g id="Offices" transform="translate(-1225.000000, -329.000000)" fill="#333E44">
            <g id="EPIC-Tower" transform="translate(322.000000, 310.000000)">
                <path d="M908.015625,19.5 L910.265625,19.5 C910.593752,19.5 910.86328,19.6054677 911.074219,19.8164062 C911.285157,20.0273448 911.390625,20.2968734 911.390625,20.625 L911.390625,21.1875 L914.765625,21.1875 L914.765625,22.3125 L914.203125,22.3125 L914.203125,31.3125 C914.203125,31.7812523 914.039064,32.1796859 913.710938,32.5078125 C913.382811,32.8359391 912.984377,33 912.515625,33 L905.765625,33 C905.296873,33 904.898439,32.8359391 904.570312,32.5078125 C904.242186,32.1796859 904.078125,31.7812523 904.078125,31.3125 L904.078125,22.3125 L903.515625,22.3125 L903.515625,21.1875 L906.890625,21.1875 L906.890625,20.625 C906.890625,20.2968734 906.996093,20.0273448 907.207031,19.8164062 C907.41797,19.6054677 907.687498,19.5 908.015625,19.5 Z M908.015625,20.625 L908.015625,21.1875 L910.265625,21.1875 L910.265625,20.625 L908.015625,20.625 Z M905.203125,22.3125 L905.203125,31.3125 C905.203125,31.4765633 905.255859,31.6113276 905.361328,31.7167969 C905.466797,31.8222662 905.601562,31.875 905.765625,31.875 L912.515625,31.875 C912.679688,31.875 912.814453,31.8222662 912.919922,31.7167969 C913.025391,31.6113276 913.078125,31.4765633 913.078125,31.3125 L913.078125,22.3125 L905.203125,22.3125 Z M906.328125,24 L907.453125,24 L907.453125,30.1875 L906.328125,30.1875 L906.328125,24 Z M908.578125,24 L909.703125,24 L909.703125,30.1875 L908.578125,30.1875 L908.578125,24 Z M910.828125,24 L911.953125,24 L911.953125,30.1875 L910.828125,30.1875 L910.828125,24 Z" id="ïŒ"></path>
            </g>
        </g>
    </g>
</svg>