<?xml version="1.0" encoding="UTF-8"?>
<svg width="92px" height="82px" viewBox="0 0 92 82" version="1.1" xmlns="http://www.w3.org/2000/svg" xmlns:xlink="http://www.w3.org/1999/xlink">
    <!-- Generator: sketchtool 58 (101010) - https://sketch.com -->
    <title>C752D9A5-955A-4071-AE32-3988B19B2140</title>
    <desc>Created with sketchtool.</desc>
    <g id="Hi-Fi" stroke="none" stroke-width="1" fill="none" fill-rule="evenodd">
        <g id="Onboarding---6" transform="translate(-888.000000, -349.000000)" fill="#000000">
            <g id="Group-8" transform="translate(757.000000, 64.000000)">
                <g id="Group-9" transform="translate(131.000000, 102.000000)">
                    <g id="DOOR" transform="translate(0.000000, 182.792079)">
                        <path d="M44.6710557,0.207920792 L87.3277389,0.207920792 C89.9049562,0.207920792 92,2.31630159 92,4.90992538 L92,77.5059162 C92,80.09954 89.9049562,82.2079208 87.3277389,82.2079208 L44.6710557,82.2079208 C42.1661644,82.2079208 40.1036673,80.2099328 40.0036163,77.6927348 L40.0024109,77.6878823 L40.0024109,77.6793906 L40.0024109,77.6660464 L40.0024109,77.6527022 L40.0024109,77.6405711 L40.0024109,77.627227 L40.0012054,77.627227 L40.0012054,77.6138828 L40.0012054,77.6005386 L40.0012054,77.5871944 L40.0012054,77.5726371 L40,77.5665716 L40,77.5592929 L40,77.5459488 L40,77.5326046 L40,77.5192604 L40,77.5059162 L40,4.90992538 L40,4.8965812 L40,4.88323701 L40,4.86989283 L40,4.85654865 L40,4.84927 L40.0012054,4.84320447 L40.0012054,4.82864718 L40.0012054,4.81530299 L40.0012054,4.80195881 L40.0012054,4.78861463 L40.0024109,4.78861463 L40.0024109,4.77527045 L40.0024109,4.76192627 L40.0024109,4.74858208 L40.0024109,4.7352379 L40.0024109,4.72795926 L40.0036163,4.72189372 C40.1048727,2.20590881 42.164959,0.207920792 44.6710557,0.207920792 Z M18.5651183,52.2888131 C15.9055111,54.7956545 19.6268163,58.9367025 22.2852318,56.4310816 L34.1152406,45.2784448 C35.286564,44.1751417 35.3032461,42.2333771 34.1152406,41.1361763 L22.2852318,29.98476 C19.6268163,27.4791391 15.9055111,31.6201871 18.5651183,34.1270285 L25.205795,40.386809 L2.7159093,40.386809 C-0.905303099,40.386809 -0.905303099,46.0265917 2.7159093,46.0265917 L25.2081782,46.0265917 L18.5651183,52.2888131 L18.5651183,52.2888131 Z M60,35.2079208 L65,35.2079208 L65,47.2079208 L60,47.2079208 L60,35.2079208 Z M52.0012138,5.20792079 L70.2185463,14.9287311 C71.1604245,15.4324756 71.6969066,16.3985945 71.6969066,17.398783 C71.710258,32.9382082 71.7090443,48.4776334 71.7090443,64.0170586 C71.7090443,65.1802949 71.0014218,66.1792666 69.9940006,66.6063544 L52,76.2079208 L87,76.2079208 L87,5.20792079 L52.0012138,5.20792079 Z" id="Shape"></path>
                    </g>
                </g>
            </g>
        </g>
    </g>
</svg>