<?xml version="1.0" encoding="UTF-8"?>
<svg width="14px" height="18px" viewBox="0 0 14 18" version="1.1" xmlns="http://www.w3.org/2000/svg" xmlns:xlink="http://www.w3.org/1999/xlink">
    <!-- Generator: sketchtool 52.1 (67048) - http://www.bohemiancoding.com/sketch -->
    <title>E8FAC040-84C4-4F20-B8D7-367C583EEFFE</title>
    <desc>Created with sketchtool.</desc>
    <defs>
        <path d="M11.59,6.5 L10,6.5 L10,1.5 C10,0.95 9.55,0.5 9,0.5 L5,0.5 C4.45,0.5 4,0.95 4,1.5 L4,6.5 L2.41,6.5 C1.52,6.5 1.07,7.58 1.7,8.21 L6.29,12.8 C6.68,13.19 7.31,13.19 7.7,12.8 L12.29,8.21 C12.92,7.58 12.48,6.5 11.59,6.5 Z M0,16.5 C0,17.05 0.45,17.5 1,17.5 L13,17.5 C13.55,17.5 14,17.05 14,16.5 C14,15.95 13.55,15.5 13,15.5 L1,15.5 C0.45,15.5 0,15.95 0,16.5 Z" id="path-1"></path>
    </defs>
    <g id="Web" stroke="none" stroke-width="1" fill="none" fill-rule="evenodd">
        <g id="Analytics-&gt;-Calendar-Options" transform="translate(-1353.000000, -205.000000)">
            <g id="icon/file/download_24px" transform="translate(1353.000000, 205.000000)">
                <mask id="mask-2" fill="white">
                    <use xlink:href="#path-1"></use>
                </mask>
                <use fill="#FFFFFF" fill-rule="nonzero" xlink:href="#path-1"></use>
            </g>
        </g>
    </g>
</svg>