<?xml version="1.0" encoding="UTF-8"?>
<svg width="14px" height="14px" viewBox="0 0 14 14" version="1.1" xmlns="http://www.w3.org/2000/svg" xmlns:xlink="http://www.w3.org/1999/xlink">
    <!-- Generator: sketchtool 51.2 (57519) - http://www.bohemiancoding.com/sketch -->
    <title>6F9AB55F-11B1-4519-AED0-6B1FCC4C9BDC</title>
    <desc>Created with sketchtool.</desc>
    <defs></defs>
    <g id="Web" stroke="none" stroke-width="1" fill="none" fill-rule="evenodd">
        <g id="Offices" transform="translate(-1186.000000, -329.000000)" fill="#333E44">
            <g id="EPIC-Tower" transform="translate(322.000000, 310.000000)">
                <path d="M874.867188,19.9921875 C875.195314,19.6640609 875.593748,19.5 876.0625,19.5 C876.531252,19.5 876.923827,19.6640609 877.240234,19.9921875 C877.556642,20.3203141 877.714844,20.7187477 877.714844,21.1875 C877.714844,21.6562523 877.562502,22.0546859 877.257812,22.3828125 L871.5625,28.078125 L871.386719,28.078125 L869.417969,28.5 L868.609375,28.640625 L868.75,27.8320312 L869.171875,25.8632812 L869.171875,25.6875 L874.867188,19.9921875 Z M876.449219,20.8007812 C876.332031,20.6835932 876.203126,20.625 876.0625,20.625 C875.921874,20.625 875.792969,20.6835932 875.675781,20.8007812 L870.226562,26.25 L870.015625,27.234375 L871,27.0234375 L876.449219,21.5742188 C876.707033,21.316405 876.707033,21.058595 876.449219,20.8007812 Z M864.25,21.75 L871.667969,21.75 L870.542969,22.875 L865.375,22.875 L865.375,31.875 L874.375,31.875 L874.375,26.7070312 L875.5,25.5820312 L875.5,33 L864.25,33 L864.25,21.75 Z" id="ï‡"></path>
            </g>
        </g>
    </g>
</svg>