<?xml version="1.0" encoding="UTF-8"?>
<svg width="21px" height="21px" viewBox="0 0 21 21" version="1.1" xmlns="http://www.w3.org/2000/svg" xmlns:xlink="http://www.w3.org/1999/xlink">
    <!-- Generator: sketchtool 49.3 (51167) - http://www.bohemiancoding.com/sketch -->
    <title>BC2D36E1-6145-4A75-A4FE-6220472DF47E</title>
    <desc>Created with sketchtool.</desc>
    <defs>
        <path d="M2.70586164,18.2483641 L6.68957283,16.9204604 C6.95456373,16.8321301 7.24385674,16.8532818 7.49318163,16.9792164 C8.58011662,17.5282298 9.78136359,17.8127356 11.0014061,17.8095572 C13.9768668,17.8084059 16.6964103,16.1265829 18.0286135,13.4610441 C18.5776269,12.3741091 18.8621328,11.1728622 18.8589579,9.95514572 L18.860545,9.48631331 C18.640522,5.49816417 15.4560616,2.31370373 11.525621,2.09527144 L10.99908,2.09526788 C9.78136359,2.09209297 8.58011662,2.37659883 7.48920632,2.92760959 C4.82764283,4.25781544 3.14581986,6.97735895 3.14466502,9.95514572 C3.14149011,11.1728622 3.42599597,12.3741091 3.97500938,13.4610441 C4.10094397,13.710369 4.12209567,13.999662 4.03376537,14.2646529 L2.70586164,18.2483641 Z M20.9541924,9.95108706 C20.9580054,11.4983272 20.596406,13.0246085 19.9008163,14.4017139 C18.2158889,17.7730277 14.7711337,19.9033368 11.0045429,19.9047917 C9.60589688,19.9084383 8.2243454,19.6134865 6.95166239,19.0416721 L1.38071672,20.8986539 C0.561732117,21.1716488 -0.217423071,20.3924936 0.0555717963,19.573509 L1.91255329,14.0025645 C1.34073909,12.7299013 1.04578707,11.3485526 1.04943057,9.95200892 C1.05088895,6.18309201 3.18119804,2.73833689 6.54853649,1.05540684 C7.93003381,0.357609303 9.45682197,-0.00399841852 11.0018114,3.33474869e-05 L11.5833295,0.00162400448 C16.6378287,0.280476607 20.6737491,4.31639706 20.9541924,9.42860478 L20.9541924,9.95108706 Z" id="path-1"></path>
    </defs>
    <g id="Web" stroke="none" stroke-width="1" fill="none" fill-rule="evenodd">
        <g id="Offices" transform="translate(-792.000000, -93.000000)">
            <g id="Header">
                <g id="Menu" transform="translate(487.000000, 92.000000)">
                    <g id="Room-Feedback" transform="translate(305.000000, 0.000000)">
                        <g id="message-circle" transform="translate(0.000000, 1.000000)">
                            <mask id="mask-2" fill="white">
                                <use xlink:href="#path-1"></use>
                            </mask>
                            <use id="Shape" fill="#BCBCBC" fill-rule="nonzero" xlink:href="#path-1"></use>
                        </g>
                    </g>
                </g>
            </g>
        </g>
    </g>
</svg>