<?xml version="1.0" encoding="UTF-8"?>
<svg width="18px" height="16px" viewBox="0 0 18 16" version="1.1" xmlns="http://www.w3.org/2000/svg" xmlns:xlink="http://www.w3.org/1999/xlink">
    <!-- Generator: sketchtool 51 (57462) - http://www.bohemiancoding.com/sketch -->
    <title>03D0A4FF-48AA-43E2-80FD-8E582F8A5BB5</title>
    <desc>Created with sketchtool.</desc>
    <defs></defs>
    <g id="Web" stroke="none" stroke-width="1" fill="none" fill-rule="evenodd">
        <g id="Rooms-&gt;-Select" transform="translate(-1132.000000, -210.000000)">
            <rect fill="none" x="0" y="0" width="1440" height="826"></rect>
            <g id="Sort-Button" transform="translate(1062.000000, 198.000000)" fill="#FFFFFF" fill-rule="nonzero">
                <path d="M76.5458834,20.6603586 L70.1949815,13.3164952 C69.7453388,12.796551 70.1232738,12 70.8196114,12 L87.1803886,12 C87.8767262,12 88.2546612,12.796551 87.8050185,13.3164952 L81.4541166,20.6603586 L81.4541166,27.1990195 C81.4541166,27.7936868 80.8141546,28.1804584 80.2702396,27.9145151 L76.9980842,26.3146183 C76.7209457,26.1791134 76.5458834,25.9021208 76.5458834,25.5991227 L76.5458834,20.6603586 Z M85.4172665,13.5998968 L72.5827335,13.5998968 L77.9885522,19.8509134 C78.1134374,19.9953245 78.1819611,20.178334 78.1819611,20.3674602 L78.1819611,25.1047274 L79.8180389,25.9046758 L79.8180389,20.3674602 C79.8180389,20.178334 79.8865626,19.9953245 80.0114478,19.8509134 L85.4172665,13.5998968 Z" id="Shape"></path>
            </g>
        </g>
    </g>
</svg>
