<?xml version="1.0" encoding="UTF-8"?>
<svg width="28px" height="28px" viewBox="0 0 28 28" version="1.1" xmlns="http://www.w3.org/2000/svg" xmlns:xlink="http://www.w3.org/1999/xlink">
    <!-- Generator: sketchtool 52.2 (67145) - http://www.bohemiancoding.com/sketch -->
    <title>ACCD146C-763C-4B22-A88C-265B7D33EC7D</title>
    <desc>Created with sketchtool.</desc>
    <defs>
        <path d="M17.3354232,12.6896552 C18.7196238,12.6896552 19.828652,11.5806897 19.828652,10.2068966 C19.828652,8.83310345 18.7196238,7.72413793 17.3354232,7.72413793 C15.9512226,7.72413793 14.8338558,8.83310345 14.8338558,10.2068966 C14.8338558,11.5806897 15.9512226,12.6896552 17.3354232,12.6896552 Z M10.6645768,12.6896552 C12.0487774,12.6896552 13.1578056,11.5806897 13.1578056,10.2068966 C13.1578056,8.83310345 12.0487774,7.72413793 10.6645768,7.72413793 C9.28037618,7.72413793 8.1630094,8.83310345 8.1630094,10.2068966 C8.1630094,11.5806897 9.28037618,12.6896552 10.6645768,12.6896552 Z M10.6645768,14.3448276 C8.72169279,14.3448276 4.82758621,15.3131034 4.82758621,17.2413793 L4.82758621,18.4827586 C4.82758621,18.937931 5.20282132,19.3103448 5.66144201,19.3103448 L15.6677116,19.3103448 C16.1263323,19.3103448 16.5015674,18.937931 16.5015674,18.4827586 L16.5015674,17.2413793 C16.5015674,15.3131034 12.6074608,14.3448276 10.6645768,14.3448276 Z M17.3354232,14.3448276 C17.093605,14.3448276 16.8184326,14.3613793 16.5265831,14.3862069 C16.5432602,14.3944828 16.5515987,14.4110345 16.5599373,14.4193103 C17.5105329,15.1062069 18.169279,16.0248276 18.169279,17.2413793 L18.169279,18.4827586 C18.169279,18.7724138 18.1109091,19.0537931 18.019185,19.3103448 L22.338558,19.3103448 C22.7971787,19.3103448 23.1724138,18.937931 23.1724138,18.4827586 L23.1724138,17.2413793 C23.1724138,15.3131034 19.2783072,14.3448276 17.3354232,14.3448276 Z" id="path-1"></path>
    </defs>
    <g id="Web" stroke="none" stroke-width="1" fill="none" fill-rule="evenodd">
        <g id="Analytics-&gt;-Meeting-Activity" transform="translate(-1216.000000, -1051.000000)">
            <g id="Group-2-Copy" transform="translate(60.000000, 725.000000)">
                <g id="Group-2-Copy-7" transform="translate(1156.000000, 326.000000)">
                    <g id="Group-5">
                        <circle id="Oval-5" fill="#EBEBEB" fill-rule="nonzero" cx="14" cy="14" r="14"></circle>
                        <mask id="mask-2" fill="white">
                            <use xlink:href="#path-1"></use>
                        </mask>
                        <use id="icon/social/people_24px" fill="#BCBCBC" fill-rule="nonzero" xlink:href="#path-1"></use>
                    </g>
                </g>
            </g>
        </g>
    </g>
</svg>