<?xml version="1.0" encoding="UTF-8"?>
<svg width="20px" height="20px" viewBox="0 0 20 20" version="1.1" xmlns="http://www.w3.org/2000/svg" xmlns:xlink="http://www.w3.org/1999/xlink">
    <!-- Generator: sketchtool 52.1 (67048) - http://www.bohemiancoding.com/sketch -->
    <title>B62C2871-840E-4977-BA54-6DC03524C9D5</title>
    <desc>Created with sketchtool.</desc>
    <defs>
        <path d="M380,26 C374.48,26 370,30.48 370,36 C370,41.52 374.48,46 380,46 C385.52,46 390,41.52 390,36 C390,30.48 385.52,26 380,26 Z M380,44 C375.59,44 372,40.41 372,36 C372,31.59 375.59,28 380,28 C384.41,28 388,31.59 388,36 C388,40.41 384.41,44 380,44 Z M379,40 L381,40 L381,42 L379,42 L379,40 Z M380.61,30.04 C378.55,29.74 376.73,31.01 376.18,32.83 C376,33.41 376.44,34 377.05,34 L377.25,34 C377.66,34 377.99,33.71 378.13,33.33 C378.45,32.44 379.4,31.83 380.43,32.05 C381.38,32.25 382.08,33.18 382,34.15 C381.9,35.49 380.38,35.78 379.55,37.03 C379.55,37.04 379.54,37.04 379.54,37.05 C379.53,37.07 379.52,37.08 379.51,37.1 C379.42,37.25 379.33,37.42 379.26,37.6 C379.25,37.63 379.23,37.65 379.22,37.68 C379.21,37.7 379.21,37.72 379.2,37.75 C379.08,38.09 379,38.5 379,39 L381,39 C381,38.58 381.11,38.23 381.28,37.93 C381.3,37.9 381.31,37.87 381.33,37.84 C381.41,37.7 381.51,37.57 381.61,37.45 C381.62,37.44 381.63,37.42 381.64,37.41 C381.74,37.29 381.85,37.18 381.97,37.07 C382.93,36.16 384.23,35.42 383.96,33.51 C383.72,31.77 382.35,30.3 380.61,30.04 Z" id="path-1"></path>
    </defs>
    <g id="Web" stroke="none" stroke-width="1" fill="none" fill-rule="evenodd">
        <g id="Analytics-&gt;-Overview" transform="translate(-430.000000, -1068.000000)">
            <g id="%-checkins" transform="translate(60.000000, 1042.000000)">
                <mask id="mask-2" fill="white">
                    <use xlink:href="#path-1"></use>
                </mask>
                <use id="icon/action/help_outline_24px" fill="#BCBCBC" fill-rule="nonzero" xlink:href="#path-1"></use>
            </g>
        </g>
    </g>
</svg>