<?xml version="1.0" encoding="UTF-8"?>
<svg width="20px" height="20px" viewBox="0 0 20 20" version="1.1" xmlns="http://www.w3.org/2000/svg" xmlns:xlink="http://www.w3.org/1999/xlink">
    <!-- Generator: sketchtool 52.2 (67145) - http://www.bohemiancoding.com/sketch -->
    <title>BD7A9DBF-754F-410A-A2C2-4CAD99D49AD4</title>
    <desc>Created with sketchtool.</desc>
    <defs>
        <path d="M350,1 C344.48,1 340,5.48 340,11 C340,16.52 344.48,21 350,21 C355.52,21 360,16.52 360,11 C360,5.48 355.52,1 350,1 Z M350,19 C345.59,19 342,15.41 342,11 C342,6.59 345.59,3 350,3 C354.41,3 358,6.59 358,11 C358,15.41 354.41,19 350,19 Z M349,15 L351,15 L351,17 L349,17 L349,15 Z M350.61,5.04 C348.55,4.74 346.73,6.01 346.18,7.83 C346,8.41 346.44,9 347.05,9 L347.25,9 C347.66,9 347.99,8.71 348.13,8.33 C348.45,7.44 349.4,6.83 350.43,7.05 C351.38,7.25 352.08,8.18 352,9.15 C351.9,10.49 350.38,10.78 349.55,12.03 C349.55,12.04 349.54,12.04 349.54,12.05 C349.53,12.07 349.52,12.08 349.51,12.1 C349.42,12.25 349.33,12.42 349.26,12.6 C349.25,12.63 349.23,12.65 349.22,12.68 C349.21,12.7 349.21,12.72 349.2,12.75 C349.08,13.09 349,13.5 349,14 L351,14 C351,13.58 351.11,13.23 351.28,12.93 C351.3,12.9 351.31,12.87 351.33,12.84 C351.41,12.7 351.51,12.57 351.61,12.45 C351.62,12.44 351.63,12.42 351.64,12.41 C351.74,12.29 351.85,12.18 351.97,12.07 C352.93,11.16 354.23,10.42 353.96,8.51 C353.72,6.77 352.35,5.3 350.61,5.04 Z" id="path-1"></path>
    </defs>
    <g id="Web" stroke="none" stroke-width="1" fill="none" fill-rule="evenodd">
        <g id="Analytics-&gt;-Overview" transform="translate(-431.000000, -314.000000)">
            <g id="Group-2-Copy" transform="translate(91.000000, 313.000000)">
                <mask id="mask-2" fill="white">
                    <use xlink:href="#path-1"></use>
                </mask>
                <use id="icon/action/help_outline_24px" fill="#BCBCBC" fill-rule="nonzero" xlink:href="#path-1"></use>
            </g>
        </g>
    </g>
</svg>