<?xml version="1.0" encoding="UTF-8"?>
<svg width="19px" height="16px" viewBox="0 0 19 16" version="1.1" xmlns="http://www.w3.org/2000/svg" xmlns:xlink="http://www.w3.org/1999/xlink">
    <!-- Generator: sketchtool 58 (101010) - https://sketch.com -->
    <title>21846680-1240-4368-AE7B-F583965AA028</title>
    <desc>Created with sketchtool.</desc>
    <g id="Hi-Fi" stroke="none" stroke-width="1" fill="none" fill-rule="evenodd">
        <g id="Landing-Page" transform="translate(-897.000000, -279.000000)" fill="#707578" fill-rule="nonzero">
            <g id="Group" transform="translate(496.000000, 254.000000)">
                <g id="Group-4">
                    <g id="Hide-Icon" transform="translate(401.000000, 25.000000)">
                        <path d="M7.263,10.2132 C7.264,10.2124 7.2646,10.2112 7.2652,10.2102 L16.6402,0.8356 C16.8268,0.6486 16.8268,0.3446 16.64,0.1574 C16.459,-0.0234 16.1432,-0.0236 15.962,0.1576 L13.2346,2.8854 C11.8804,2.1374 10.525,1.754 9.2,1.754 C4.183,1.754 0.441,7.0984 0.284,7.3258 C0.1718,7.4886 0.1718,7.7072 0.284,7.87 C0.3528,7.9696 1.8946,10.1854 4.3198,11.8 L1.7598,14.3602 C1.5732,14.5474 1.5732,14.851 1.76,15.0384 C1.8506,15.1286 1.9712,15.1786 2.0988,15.1786 C2.227,15.1786 2.3472,15.1286 2.4378,15.038 L7.26,10.2158 C7.261,10.215 7.262,10.2144 7.263,10.2132 Z M5.013,11.1068 C3.1414,9.902 1.763,8.2346 1.2754,7.5982 C2.0598,6.5782 5.2928,2.7126 9.2,2.7126 C10.2834,2.7126 11.4006,3.009 12.5286,3.5918 L11.4518,4.6684 C10.8082,4.1716 10.0254,3.8994 9.2,3.8994 C7.1608,3.8994 5.5014,5.5586 5.5014,7.5978 C5.5014,8.424 5.7736,9.2066 6.2702,9.8496 L5.013,11.1068 Z M6.46,7.5978 C6.46,6.0872 7.6892,4.858 9.1998,4.858 C9.7688,4.858 10.3104,5.0324 10.767,5.3528 L6.9544,9.1652 C6.6344,8.7088 6.46,8.1674 6.46,7.5978 Z" id="Shape"></path>
                        <path d="M9.2,10.3376 C8.9274,10.3376 8.6616,10.2966 8.408,10.22 L7.6672,10.9606 C8.1424,11.1786 8.6616,11.2966 9.2,11.2966 C11.239,11.2966 12.8986,9.6372 12.8986,7.598 C12.8986,7.0596 12.7808,6.5402 12.5628,6.0652 L11.8218,6.8062 C11.8988,7.0596 11.9398,7.3254 11.9398,7.598 C11.9398,9.1086 10.7106,10.3376 9.2,10.3376 Z" id="Path"></path>
                        <path d="M18.1158,7.3254 C18.0532,7.235 16.7796,5.413 14.7528,3.8752 L14.0668,4.5612 C15.5904,5.696 16.6982,7.0412 17.1248,7.5976 C16.3404,8.6176 13.108,12.4832 9.2,12.4832 C8.3708,12.4832 7.5212,12.308 6.6626,11.9652 L5.9358,12.6922 C7.0322,13.186 8.126,13.4418 9.2,13.4418 C14.2136,13.4418 17.959,8.0976 18.116,7.87 C18.2282,7.7074 18.2282,7.4888 18.1158,7.3254 Z" id="Path"></path>
                    </g>
                </g>
            </g>
        </g>
    </g>
</svg>