<?xml version="1.0" encoding="UTF-8"?>
<svg width="13px" height="14px" viewBox="0 0 13 14" version="1.1" xmlns="http://www.w3.org/2000/svg" xmlns:xlink="http://www.w3.org/1999/xlink">
    <!-- Generator: sketchtool 58 (101010) - https://sketch.com -->
    <title>8CD0D455-509E-4509-9DFB-49FC23187B66</title>
    <desc>Created with sketchtool.</desc>
    <g id="Style-Guide" stroke="none" stroke-width="1" fill="none" fill-rule="evenodd">
        <g id="Icons" transform="translate(-122.000000, -189.000000)" fill="#2C7CF1">
            <g id="Home_active" transform="translate(122.000000, 189.000000)">
                <path d="M11.616,4.176 L7.488,0.576 C6.72,-0.144 5.568,-0.144 4.8,0.576 L0.672,4.176 C0.24,4.608 0,5.088 0,5.712 L0,11.904 C0,13.008 0.912,13.92 2.016,13.92 L10.272,13.92 C11.376,13.92 12.288,13.008 12.288,11.904 L12.336,5.712 C12.336,5.088 12.096,4.56 11.616,4.176 Z M4.272,13.104 L4.272,9.312 C4.272,8.784 4.752,8.304 5.328,8.304 L6.96,8.304 C7.536,8.304 8.016,8.784 8.016,9.312 L8.016,13.104 L10.272,13.104 C10.944,13.104 11.472,12.576 11.472,11.904 L11.52,5.712 C11.52,5.328 11.376,5.04 11.088,4.8 L6.96,1.152 C6.48,0.768 5.808,0.768 5.376,1.152 L1.248,4.8 C0.96,5.04 0.816,5.328 0.816,5.712 L0.816,11.904 C0.816,12.576 1.344,13.104 2.016,13.104 L4.272,13.104 Z M7.2,13.104 L7.2,9.312 C7.2,9.216 7.104,9.12 6.96,9.12 L5.328,9.12 C5.184,9.12 5.088,9.216 5.088,9.312 L5.088,13.104 L7.2,13.104 Z" id="Shape"></path>
            </g>
        </g>
    </g>
</svg>
