<?xml version="1.0" encoding="UTF-8"?>
<svg width="247px" height="235px" viewBox="0 0 247 235" version="1.1" xmlns="http://www.w3.org/2000/svg" xmlns:xlink="http://www.w3.org/1999/xlink">
    <!-- Generator: sketchtool 58 (101010) - https://sketch.com -->
    <title>E2C15CC8-7ECE-4C3C-99F2-59DC10919942</title>
    <desc>Created with sketchtool.</desc>
    <defs>
        <linearGradient x1="49.9988159%" y1="100%" x2="49.9988159%" y2="0%" id="linearGradient-1">
            <stop stop-color="#808080" stop-opacity="0.25" offset="0%"></stop>
            <stop stop-color="#808080" stop-opacity="0.12" offset="54%"></stop>
            <stop stop-color="#808080" stop-opacity="0.1" offset="100%"></stop>
        </linearGradient>
        <linearGradient x1="50%" y1="100%" x2="50%" y2="0%" id="linearGradient-2">
            <stop stop-color="#808080" stop-opacity="0.25" offset="0%"></stop>
            <stop stop-color="#808080" stop-opacity="0.12" offset="54%"></stop>
            <stop stop-color="#808080" stop-opacity="0.1" offset="100%"></stop>
        </linearGradient>
        <linearGradient x1="60.2978048%" y1="98.8803643%" x2="39.7592206%" y2="1.02948481%" id="linearGradient-3">
            <stop stop-color="#808080" stop-opacity="0.25" offset="0%"></stop>
            <stop stop-color="#808080" stop-opacity="0.12" offset="54%"></stop>
            <stop stop-color="#808080" stop-opacity="0.1" offset="100%"></stop>
        </linearGradient>
        <linearGradient x1="50%" y1="99.9144422%" x2="50%" y2="-0.0855578371%" id="linearGradient-4">
            <stop stop-color="#808080" stop-opacity="0.25" offset="0%"></stop>
            <stop stop-color="#808080" stop-opacity="0.12" offset="54%"></stop>
            <stop stop-color="#808080" stop-opacity="0.1" offset="100%"></stop>
        </linearGradient>
    </defs>
    <g id="Hi-Fi" stroke="none" stroke-width="1" fill="none" fill-rule="evenodd">
        <g id="Onboarding---4" transform="translate(-960.000000, -265.000000)" fill-rule="nonzero">
            <g id="undraw_no_data_qbuo-(2)" transform="translate(960.000000, 265.000000)">
                <rect id="Rectangle" fill="#E0E0E0" transform="translate(103.831467, 115.452046) rotate(-12.110000) translate(-103.831467, -115.452046) " x="38.2784668" y="24.8790459" width="131.106" height="181.146"></rect>
                <g id="Group" opacity="0.5" transform="translate(23.400000, 16.500000)" fill="url(#linearGradient-1)">
                    <rect id="Rectangle" transform="translate(80.433248, 98.953198) rotate(-12.110000) translate(-80.433248, -98.953198) " x="17.0957481" y="11.4416978" width="126.675" height="175.023"></rect>
                </g>
                <rect id="Rectangle" fill="#FAFAFA" transform="translate(103.696304, 114.822387) rotate(-12.110000) translate(-103.696304, -114.822387) " x="41.9713038" y="29.244387" width="123.45" height="171.156"></rect>
                <rect id="Rectangle" fill="url(#linearGradient-2)" transform="translate(85.900698, 31.112507) rotate(-12.110000) translate(-85.900698, -31.112507) " x="55.2796978" y="23.6950067" width="61.242" height="14.835"></rect>
                <path d="M81.303,9.693 C76.68,10.686 73.755,15.327 74.772,20.058 C75.789,24.789 80.358,27.825 84.972,26.832 C89.586,25.839 92.52,21.198 91.503,16.467 C90.486,11.736 85.926,8.7 81.303,9.693 Z M84.204,23.223 C82.2055558,23.6996013 80.117364,22.9200241 78.9201614,21.2504032 C77.7229588,19.5807822 77.6546248,17.3528648 78.7472531,15.6130109 C79.8398813,13.873157 81.8763708,12.9670688 83.9002674,13.3202981 C85.9241639,13.6735275 87.5333271,15.2158891 87.972,17.223 C88.2712824,18.5185557 88.0419791,19.8799654 87.3348254,21.0060063 C86.6276717,22.1320473 85.5009657,22.929888 84.204,23.223 Z" id="Shape" fill="url(#linearGradient-3)"></path>
                <rect id="Rectangle" fill="#4285F4" transform="translate(85.698549, 30.170637) rotate(-12.110000) translate(-85.698549, -30.170637) " x="55.7225492" y="23.080137" width="59.952" height="14.181"></rect>
                <path d="M81.303,9.693 C76.778575,10.6640968 73.8979641,15.1190149 74.8688854,19.6434775 C75.8398066,24.1679402 80.2946129,27.0487239 84.8191133,26.0779782 C89.3436136,25.1072325 92.2245701,20.652538 91.254,16.128 C90.7878676,13.9550154 89.4775496,12.0562289 87.6113418,10.8494108 C85.745134,9.64259267 83.4759303,9.22661463 81.303,9.693 L81.303,9.693 Z M84.075,22.623 C82.1624643,23.0333775 80.1910506,22.2512081 79.0800967,20.6412442 C77.9691427,19.0312802 77.9374526,16.9106067 78.9998044,15.2681661 C80.0621563,13.6257255 82.0093183,12.7849991 83.9332622,13.1380464 C85.8572061,13.4910938 87.3790082,14.9683816 87.789,16.881 C88.3487301,19.4921497 86.6860368,22.0627434 84.075,22.623 L84.075,22.623 Z" id="Shape" fill="#4285F4"></path>
                <rect id="Rectangle" fill="#E0E0E0" x="77.367" y="35.073" width="131.106" height="181.146"></rect>
                <g id="Group" opacity="0.5" transform="translate(79.500000, 38.100000)" fill="url(#linearGradient-1)">
                    <rect id="Rectangle" x="0.084" y="0.036" width="126.675" height="175.023"></rect>
                </g>
                <rect id="Rectangle" fill="#FFFFFF" x="81.195" y="39.426" width="123.45" height="171.156"></rect>
                <rect id="Rectangle" fill="url(#linearGradient-2)" x="112.461" y="32.004" width="61.242" height="14.835"></rect>
                <path d="M143.082,17.523 C138.354,17.523 134.52,21.447 134.52,26.289 C134.52,31.131 138.354,35.055 143.082,35.055 C147.81,35.055 151.644,31.131 151.644,26.289 C151.644,21.447 147.81,17.523 143.082,17.523 Z M143.082,31.347 C141.026012,31.3957915 139.145174,30.1948655 138.324342,28.3092088 C137.503511,26.4235521 137.906128,24.2286315 139.342779,22.7570679 C140.77943,21.2855043 142.964053,20.8303115 144.868871,21.6056391 C146.77369,22.3809667 148.019421,24.2324336 148.02,26.289 C148.040014,29.0400695 145.832945,31.2900459 143.082,31.323 L143.082,31.347 Z" id="Shape" fill="url(#linearGradient-4)"></path>
                <rect id="Rectangle" fill="#4285F4" x="113.106" y="31.368" width="59.952" height="14.181"></rect>
                <path d="M143.082,17.523 C139.693011,17.523 136.637723,19.5644778 135.340813,22.6954955 C134.043903,25.8265132 134.760775,29.4304705 137.157152,31.8268477 C139.553529,34.2232249 143.157487,34.9400966 146.288504,33.6431866 C149.419522,32.3462766 151.461,29.2909891 151.461,25.902 C151.461,21.2744061 147.709594,17.523 143.082,17.523 L143.082,17.523 Z M143.082,30.738 C140.413498,30.734681 138.252015,28.5704988 138.252015,25.9019951 C138.252015,23.2334913 140.413516,21.0693169 143.082017,21.0660037 C145.750519,21.062698 147.917376,23.2215044 147.924,25.89 C147.923205,27.1731073 147.412524,28.403302 146.504387,29.3097516 C145.596249,30.2162013 144.365107,30.7245922 143.082,30.723 L143.082,30.738 Z" id="Shape" fill="#4285F4"></path>
                <g id="Group" opacity="0.5" transform="translate(1.800000, 221.100000)" fill="#47E6B1">
                    <rect id="Rectangle" x="2.781" y="0.015" width="1.128" height="6.399"></rect>
                    <rect id="Rectangle" transform="translate(3.346500, 3.216000) rotate(90.000000) translate(-3.346500, -3.216000) " x="2.7825" y="0.0165" width="1.128" height="6.399"></rect>
                </g>
                <g id="Group" opacity="0.5" transform="translate(132.600000, 0.000000)" fill="#47E6B1">
                    <rect id="Rectangle" x="2.847" y="0" width="1.128" height="6.399"></rect>
                    <rect id="Rectangle" transform="translate(3.412500, 3.198000) rotate(90.000000) translate(-3.412500, -3.198000) " x="2.8485" y="-0.0015" width="1.128" height="6.399"></rect>
                </g>
                <path d="M231.324,231.768 C230.67993,231.48763 230.348342,230.768974 230.553,230.097 C230.568956,230.04735 230.579025,229.995999 230.583,229.944 L230.583,229.944 C230.60138,229.638924 230.417735,229.357827 230.130973,229.252105 C229.844212,229.146383 229.522049,229.241002 229.338,229.485 L229.338,229.485 C229.306804,229.526791 229.280625,229.572101 229.26,229.62 C228.97963,230.26407 228.260974,230.595658 227.589,230.391 C227.53935,230.375044 227.487999,230.364975 227.436,230.361 L227.436,230.361 C227.130924,230.34262 226.849827,230.526265 226.744105,230.813027 C226.638383,231.099788 226.733002,231.421951 226.977,231.606 L226.977,231.606 C227.018791,231.637196 227.064101,231.663375 227.112,231.684 C227.75607,231.96437 228.087658,232.683026 227.883,233.355 C227.867044,233.40465 227.856975,233.456001 227.853,233.508 L227.853,233.508 C227.83462,233.813076 228.018265,234.094173 228.305027,234.199895 C228.591788,234.305617 228.913951,234.210998 229.098,233.967 L229.098,233.967 C229.129196,233.925209 229.155375,233.879899 229.176,233.832 C229.45637,233.18793 230.175026,232.856342 230.847,233.061 C230.89665,233.076956 230.948001,233.087025 231,233.091 L231,233.091 C231.305076,233.10938 231.586173,232.925735 231.691895,232.638973 C231.797617,232.352212 231.702998,232.030049 231.459,231.846 L231.459,231.846 C231.417209,231.814804 231.371899,231.788625 231.324,231.768 Z" id="Path" fill="#4D8AF0" opacity="0.5"></path>
                <path d="M41.001,170.25 C40.35693,169.96963 40.0253418,169.250974 40.23,168.579 C40.2459558,168.52935 40.2560247,168.477999 40.26,168.426 L40.26,168.426 C40.2783805,168.120924 40.0947349,167.839827 39.8079734,167.734105 C39.5212118,167.628383 39.1990493,167.723002 39.015,167.967 L39.015,167.967 C38.9838042,168.008791 38.9576248,168.054101 38.937,168.102 C38.6566298,168.74607 37.9379737,169.077658 37.266,168.873 C37.2163505,168.857044 37.1649987,168.846975 37.113,168.843 L37.113,168.843 C36.8079239,168.82462 36.5268266,169.008265 36.4211049,169.295027 C36.3153832,169.581788 36.4100018,169.903951 36.654,170.088 L36.654,170.088 C36.6957909,170.119196 36.7411014,170.145375 36.789,170.166 C37.43307,170.44637 37.7646582,171.165026 37.56,171.837 C37.5440442,171.88665 37.5339753,171.938001 37.53,171.99 L37.53,171.99 C37.5116195,172.295076 37.6952651,172.576173 37.9820266,172.681895 C38.2687882,172.787617 38.5909507,172.692998 38.775,172.449 L38.775,172.449 C38.8061958,172.407209 38.8323752,172.361899 38.853,172.314 C39.1333702,171.66993 39.8520263,171.338342 40.524,171.543 C40.5736495,171.558956 40.6250013,171.569025 40.677,171.573 L40.677,171.573 C40.9820761,171.59138 41.2631734,171.407735 41.3688951,171.120973 C41.4746168,170.834212 41.3799982,170.512049 41.136,170.328 L41.136,170.328 C41.0942091,170.296804 41.0488986,170.270625 41.001,170.25 Z" id="Path" fill="#FDD835" opacity="0.5"></path>
                <path d="M199.524,20.454 C198.87993,20.1736298 198.548342,19.4549737 198.753,18.783 C198.768956,18.7333505 198.779025,18.6819987 198.783,18.63 L198.783,18.63 C198.80138,18.3249239 198.617735,18.0438266 198.330973,17.9381049 C198.044212,17.8323832 197.722049,17.9270018 197.538,18.171 L197.538,18.171 C197.506804,18.2127909 197.480625,18.2581014 197.46,18.306 C197.17963,18.95007 196.460974,19.2816582 195.789,19.077 C195.73935,19.0610442 195.687999,19.0509753 195.636,19.047 L195.636,19.047 C195.330924,19.0286195 195.049827,19.2122651 194.944105,19.4990266 C194.838383,19.7857882 194.933002,20.1079507 195.177,20.292 L195.177,20.292 C195.218791,20.3231958 195.264101,20.3493752 195.312,20.37 C195.95607,20.6503702 196.287658,21.3690263 196.083,22.041 C196.067044,22.0906495 196.056975,22.1420013 196.053,22.194 L196.053,22.194 C196.03462,22.4990761 196.218265,22.7801734 196.505027,22.8858951 C196.791788,22.9916168 197.113951,22.8969982 197.298,22.653 L197.298,22.653 C197.329196,22.6112091 197.355375,22.5658986 197.376,22.518 C197.65637,21.87393 198.375026,21.5423418 199.047,21.747 C199.09665,21.7629558 199.148001,21.7730247 199.2,21.777 L199.2,21.777 C199.505076,21.7953805 199.786173,21.6117349 199.891895,21.3249734 C199.997617,21.0382118 199.902998,20.7160493 199.659,20.532 L199.659,20.532 C199.617209,20.5008042 199.571899,20.4746248 199.524,20.454 L199.524,20.454 Z" id="Path" fill="#FDD835" opacity="0.5"></path>
                <circle id="Oval" fill="#F55F44" opacity="0.5" cx="243.792" cy="94.341" r="2.259"></circle>
                <circle id="Oval" fill="#F55F44" opacity="0.5" cx="69.219" cy="223.995" r="2.259"></circle>
                <circle id="Oval" fill="#F55F44" opacity="0.5" cx="220.593" cy="143.169" r="2.259"></circle>
                <circle id="Oval" fill="#4D8AF0" opacity="0.5" cx="26.142" cy="28.905" r="2.259"></circle>
                <circle id="Oval" fill="#47E6B1" opacity="0.5" cx="2.259" cy="90.528" r="2.259"></circle>
            </g>
        </g>
    </g>
</svg>