<?xml version="1.0" encoding="UTF-8"?>
<svg width="16px" height="16px" viewBox="0 0 16 16" version="1.1" xmlns="http://www.w3.org/2000/svg" xmlns:xlink="http://www.w3.org/1999/xlink">
    <!-- Generator: sketchtool 58 (101010) - https://sketch.com -->
    <title>9BBDA935-F87A-48FA-A8C7-20EE892CE3E2</title>
    <desc>Created with sketchtool.</desc>
    <g id="Style-Guide" stroke="none" stroke-width="1" fill="none" fill-rule="evenodd">
        <g id="Icons" transform="translate(-195.000000, -291.000000)" fill="#333A3F" fill-rule="nonzero">
            <g id="Insights_inactive" transform="translate(195.000000, 291.000000)">
                <path d="M10.6343146,5.6 L8.4,5.6 C8.17908608,5.6 8,5.4209139 8,5.2 C8,4.9790861 8.17908608,4.8 8.4,4.8 L11.6,4.8 C11.8209139,4.8 12,4.9790861 12,5.2 L12,8.4 C12,8.62091392 11.8209139,8.8 11.6,8.8 C11.3790861,8.8 11.2,8.62091392 11.2,8.4 L11.2,6.16568542 L7.88284272,9.48284272 C7.72663296,9.6390524 7.47336704,9.6390524 7.31715728,9.48284272 L5.2,7.36568544 L3.08284271,9.48284272 C2.92663299,9.6390524 2.67336701,9.6390524 2.51715729,9.48284272 C2.36094757,9.32663296 2.36094757,9.07336704 2.51715729,8.91715728 L4.91715729,6.51715728 C5.07336701,6.36094757 5.32663299,6.36094757 5.48284271,6.51715728 L7.6,8.63431456 L10.6343146,5.6 Z M14.4,7.6 C14.4,3.8441139 11.3558861,0.8 7.6,0.8 C3.8441139,0.8 0.8,3.8441139 0.8,7.6 C0.8,11.3558861 3.8441139,14.4 7.6,14.4 C11.3558861,14.4 14.4,11.3558861 14.4,7.6 Z M15.2,7.6 C15.2,11.7977139 11.7977139,15.2 7.6,15.2 C3.4022861,15.2 0,11.7977139 0,7.6 C0,3.4022861 3.4022861,0 7.6,0 C11.7977139,0 15.2,3.4022861 15.2,7.6 Z" id="Shape"></path>
            </g>
        </g>
    </g>
</svg>
