<?xml version="1.0" encoding="UTF-8"?>
<svg width="1440px" height="926px" viewBox="0 0 1440 926" version="1.1" xmlns="http://www.w3.org/2000/svg" xmlns:xlink="http://www.w3.org/1999/xlink">
    <!-- Generator: sketchtool 49.3 (51167) - http://www.bohemiancoding.com/sketch -->
    <title>9D0C18CE-15D7-4B78-B086-950D291C47EA</title>
    <desc>Created with sketchtool.</desc>
    <defs></defs>
    <g id="Web" stroke="none" stroke-width="1" fill="none" fill-rule="evenodd">
        <g id="LP" fill="#3359DB">
            <g id="BG">
                <path d="M0,0 L1440,0 L1440,706.741143 C1200.18369,837.310469 960.183687,902.595132 720,902.595132 C479.816313,902.595132 239.816313,840.985531 0,717.76633 L0,0 Z" id="Rectangle" opacity="0.2"></path>
                <path d="M0,0 L1440,0 L1440,755.856025 C1200.18369,853.682096 960.183687,902.595132 720,902.595132 C479.816313,902.595132 239.816313,873.802631 0,816.21763 L0,0 Z" id="Rectangle" opacity="0.2"></path>
                <path d="M0,0 L1440,0 L1440,743.796996 C1224.02813,864.712206 995.950344,925.169811 755.766658,925.169811 C515.582971,925.169811 263.660752,864.712206 0,743.796996 L0,0 Z" id="Rectangle" opacity="0.2"></path>
                <path d="M0,0 L1440,0 L1440,730 C1200.59188,827.333333 960.795975,876 720.612289,876 C480.428602,876 240.224506,827.333333 0,730 L0,0 Z" id="Rectangle"></path>
            </g>
        </g>
    </g>
</svg>