<?xml version="1.0"?>
<svg xmlns="http://www.w3.org/2000/svg" height="512px" viewBox="0 -12 496.00344 496" width="512px" class=""><g><path d="m8 463.671875h480l-240-456zm264-48h-48v-48h48zm0-80h-48v-192h48zm0 0" fill="#ffda44" data-original="#FFDA44" class=""/><path d="m224 143.671875h48v192h-48zm0 0" fill="#414042" data-original="#414042" class=""/><path d="m224 367.671875h48v48h-48zm0 0" fill="#414042" data-original="#414042" class=""/><g fill="#231f20"><path d="m216 143.671875v192c0 4.417969 3.582031 8 8 8h48c4.421875 0 8-3.582031 8-8v-192c0-4.417969-3.578125-8-8-8h-48c-4.417969 0-8 3.582031-8 8zm16 8h32v176h-32zm0 0" data-original="#000000" class="active-path" style="fill:#FFDA44" data-old_color="#000000"/><path d="m272 359.671875h-48c-4.417969 0-8 3.582031-8 8v48c0 4.417969 3.582031 8 8 8h48c4.421875 0 8-3.582031 8-8v-48c0-4.417969-3.578125-8-8-8zm-8 48h-32v-32h32zm0 0" data-original="#000000" class="active-path" style="fill:#FFDA44" data-old_color="#000000"/><path d="m240.921875 3.945312-240 456c-1.304687 2.480469-1.21875 5.460938.230469 7.863282 1.449218 2.398437 4.046875 3.863281 6.847656 3.863281h480c2.804688 0 5.402344-1.464844 6.851562-3.863281 1.449219-2.402344 1.535157-5.382813.230469-7.863282l-240-456c-1.519531-2.453124-4.195312-3.945312-7.082031-3.945312-2.882812 0-5.558594 1.492188-7.078125 3.945312zm-219.671875 451.726563 226.75-430.824219 226.753906 430.824219zm0 0" data-original="#000000" class="active-path" style="fill:#FFDA44" data-old_color="#000000"/></g></g> </svg>
