<?xml version="1.0" encoding="UTF-8"?>
<svg width="4px" height="16px" viewBox="0 0 4 16" version="1.1" xmlns="http://www.w3.org/2000/svg" xmlns:xlink="http://www.w3.org/1999/xlink">
    <!-- Generator: sketchtool 52.2 (67145) - http://www.bohemiancoding.com/sketch -->
    <title>652A6ED5-7D20-4EBF-B70A-922616AA2294</title>
    <desc>Created with sketchtool.</desc>
    <defs>
        <path d="M1288,31 C1289.1,31 1290,30.1 1290,29 C1290,27.9 1289.1,27 1288,27 C1286.9,27 1286,27.9 1286,29 C1286,30.1 1286.9,31 1288,31 Z M1288,33 C1286.9,33 1286,33.9 1286,35 C1286,36.1 1286.9,37 1288,37 C1289.1,37 1290,36.1 1290,35 C1290,33.9 1289.1,33 1288,33 Z M1288,39 C1286.9,39 1286,39.9 1286,41 C1286,42.1 1286.9,43 1288,43 C1289.1,43 1290,42.1 1290,41 C1290,39.9 1289.1,39 1288,39 Z" id="path-1"></path>
    </defs>
    <g id="Web" stroke="none" stroke-width="1" fill="none" fill-rule="evenodd">
        <g id="Analytics-&gt;-Overview" transform="translate(-1346.000000, -1369.000000)">
            <g id="Most-booked-rooms-Copy" transform="translate(60.000000, 1342.000000)">
                <mask id="mask-2" fill="white">
                    <use xlink:href="#path-1"></use>
                </mask>
                <use id="icon/navigation/more_vert_24px" fill="#BCBCBC" fill-rule="nonzero" xlink:href="#path-1"></use>
            </g>
        </g>
    </g>
</svg>