<?xml version="1.0" encoding="UTF-8"?>
<svg width="4px" height="16px" viewBox="0 0 4 16" version="1.1" xmlns="http://www.w3.org/2000/svg" xmlns:xlink="http://www.w3.org/1999/xlink">
    <!-- Generator: sketchtool 52.2 (67145) - http://www.bohemiancoding.com/sketch -->
    <title>73D51F34-E7DE-462E-B59F-F121551EEAEF</title>
    <desc>Created with sketchtool.</desc>
    <defs>
        <path d="M613,31 C614.1,31 615,30.1 615,29 C615,27.9 614.1,27 613,27 C611.9,27 611,27.9 611,29 C611,30.1 611.9,31 613,31 Z M613,33 C611.9,33 611,33.9 611,35 C611,36.1 611.9,37 613,37 C614.1,37 615,36.1 615,35 C615,33.9 614.1,33 613,33 Z M613,39 C611.9,39 611,39.9 611,41 C611,42.1 611.9,43 613,43 C614.1,43 615,42.1 615,41 C615,39.9 614.1,39 613,39 Z" id="path-1"></path>
    </defs>
    <g id="Web" stroke="none" stroke-width="1" fill="none" fill-rule="evenodd">
        <g id="Analytics-&gt;-Overview" transform="translate(-671.000000, -615.000000)">
            <g id="Most-booked-rooms" transform="translate(60.000000, 588.000000)">
                <mask id="mask-2" fill="white">
                    <use xlink:href="#path-1"></use>
                </mask>
                <use id="icon/navigation/more_vert_24px" fill="#BCBCBC" fill-rule="nonzero" xlink:href="#path-1"></use>
            </g>
        </g>
    </g>
</svg>