<?xml version="1.0" encoding="UTF-8"?>
<svg width="14px" height="13px" viewBox="0 0 14 13" version="1.1" xmlns="http://www.w3.org/2000/svg" xmlns:xlink="http://www.w3.org/1999/xlink">
    <!-- Generator: sketchtool 58 (101010) - https://sketch.com -->
    <title>2D36678A-E16F-4F8B-8009-4483284BA14E</title>
    <desc>Created with sketchtool.</desc>
    <g id="Style-Guide" stroke="none" stroke-width="1" fill="none" fill-rule="evenodd">
        <g id="Icons" transform="translate(-196.000000, -501.000000)" fill="#333A3F" fill-rule="nonzero">
            <g id="People_inactive" transform="translate(196.000000, 501.000000)">
                <path d="M8,12.4 C8,12.620914 7.8209139,12.8 7.6,12.8 C7.3790861,12.8 7.2,12.620914 7.2,12.4 L7.2,11.599692 C7.2,9.83264 5.76727262,8.4 4,8.4 C2.23240248,8.4 0.8,9.8324 0.8,11.599692 L0.8,12.4 C0.8,12.620914 0.6209139,12.8 0.4,12.8 C0.1790861,12.8 0,12.620914 0,12.4 L0,11.599692 C0,9.390572 1.79057498,7.6 4,7.6 C6.20908948,7.6 8,9.390802 8,11.599692 L8,12.4 Z M7.3973723,7.278318 C7.23712476,7.430382 6.98394566,7.42375 6.83188094,7.263502 C6.67981624,7.103254 6.68644972,6.850076 6.84669728,6.69801 C7.58471506,5.997678 8.56156384,5.6 9.6,5.6 C11.8090316,5.6 13.6,7.390678 13.6,9.599232 L13.6,10.4 C13.6,10.620914 13.4209138,10.8 13.2,10.8 C12.9790862,10.8 12.8,10.620914 12.8,10.4 L12.8,9.599232 C12.8,7.832536 11.3672328,6.4 9.6,6.4 C8.76852792,6.4 7.98817424,6.717684 7.3973723,7.278318 Z M4,6.4 C2.78497356,6.4 1.8,5.415026 1.8,4.2 C1.8,2.984974 2.78497356,2 4,2 C5.21502644,2 6.2,2.984974 6.2,4.2 C6.2,5.415026 5.21502644,6.4 4,6.4 Z M4,5.6 C4.77319864,5.6 5.4,4.973198 5.4,4.2 C5.4,3.426802 4.77319864,2.8 4,2.8 C3.22680136,2.8 2.6,3.426802 2.6,4.2 C2.6,4.973198 3.22680136,5.6 4,5.6 Z M9.6,4.4 C8.38497356,4.4 7.4,3.415026 7.4,2.2 C7.4,0.984974 8.38497356,0 9.6,0 C10.8150264,0 11.8,0.984974 11.8,2.2 C11.8,3.415026 10.8150264,4.4 9.6,4.4 Z M9.6,3.6 C10.3731986,3.6 11,2.973198 11,2.2 C11,1.426802 10.3731986,0.8 9.6,0.8 C8.8268014,0.8 8.2,1.426802 8.2,2.2 C8.2,2.973198 8.8268014,3.6 9.6,3.6 Z" id="Shape"></path>
            </g>
        </g>
    </g>
</svg>
