<?xml version="1.0" encoding="UTF-8"?>
<svg width="42px" height="33px" viewBox="0 0 42 33" version="1.1" xmlns="http://www.w3.org/2000/svg" xmlns:xlink="http://www.w3.org/1999/xlink">
    <!-- Generator: sketchtool 51.2 (57519) - http://www.bohemiancoding.com/sketch -->
    <title>1AD00D52-1610-4DDD-91D8-8023328140EB</title>
    <desc>Created with sketchtool.</desc>
    <defs></defs>
    <g id="Web" stroke="none" stroke-width="1" fill="none" fill-rule="evenodd">
        <g id="Rooms-&gt;-Add-Nairobi" transform="translate(-562.000000, -273.000000)" fill="#D4D4D4">
            <g id="Group" transform="translate(413.000000, 107.000000)">
                <g id="Group-3-Copy" transform="translate(149.000000, 166.000000)">
                    <path d="M0,0 L42,0 L42,33 L0,33 L0,0 Z M3,3 L3,22.3125 L13.5,11.8125 L23.25,21.5625 L30,14.8125 L39,23.8125 L39,3 L3,3 Z M30.84375,6.9375 C31.4687531,6.31249688 32.1874959,6 33,6 C33.8125041,6 34.515622,6.29687203 35.109375,6.890625 C35.703128,7.48437797 36,8.18749594 36,9 C36,9.81250406 35.703128,10.515622 35.109375,11.109375 C34.515622,11.703128 33.8125041,12 33,12 C32.1874959,12 31.484378,11.703128 30.890625,11.109375 C30.296872,10.515622 30,9.81250406 30,9 C30,8.18749594 30.2812472,7.50000281 30.84375,6.9375 Z M13.5,16.125 L3,26.625 L3,30 L27.28125,30 L13.5,16.125 Z M30,19.125 L25.3125,23.71875 L31.5,30 L39,30 L39,28.125 L30,19.125 Z" id=""></path>
                </g>
            </g>
        </g>
    </g>
</svg>
