<?xml version="1.0" encoding="UTF-8"?>
<svg width="20px" height="20px" viewBox="0 0 20 20" version="1.1" xmlns="http://www.w3.org/2000/svg" xmlns:xlink="http://www.w3.org/1999/xlink">
    <!-- Generator: sketchtool 52.2 (67145) - http://www.bohemiancoding.com/sketch -->
    <title>01A931ED-EA37-4B26-B2E7-F9F3B713F248</title>
    <desc>Created with sketchtool.</desc>
    <defs>
        <path d="M17.7777778,2 L2.22222222,2 C1,2 0,3 0,4.22222222 L0,19.7777778 C0,21 1,22 2.22222222,22 L17.7777778,22 C19,22 20,21 20,19.7777778 L20,4.22222222 C20,3 19,2 17.7777778,2 Z M5.55555556,17.5555556 C4.94444444,17.5555556 4.44444444,17.0555556 4.44444444,16.4444444 L4.44444444,10.8888889 C4.44444444,10.2777778 4.94444444,9.77777778 5.55555556,9.77777778 C6.16666667,9.77777778 6.66666667,10.2777778 6.66666667,10.8888889 L6.66666667,16.4444444 C6.66666667,17.0555556 6.16666667,17.5555556 5.55555556,17.5555556 Z M10,17.5555556 C9.38888889,17.5555556 8.88888889,17.0555556 8.88888889,16.4444444 L8.88888889,7.55555556 C8.88888889,6.94444444 9.38888889,6.44444444 10,6.44444444 C10.6111111,6.44444444 11.1111111,6.94444444 11.1111111,7.55555556 L11.1111111,16.4444444 C11.1111111,17.0555556 10.6111111,17.5555556 10,17.5555556 Z M14.4444444,17.5555556 C13.8333333,17.5555556 13.3333333,17.0555556 13.3333333,16.4444444 L13.3333333,14.2222222 C13.3333333,13.6111111 13.8333333,13.1111111 14.4444444,13.1111111 C15.0555556,13.1111111 15.5555556,13.6111111 15.5555556,14.2222222 L15.5555556,16.4444444 C15.5555556,17.0555556 15.0555556,17.5555556 14.4444444,17.5555556 Z" id="path-1"></path>
    </defs>
    <g id="Web" stroke="none" stroke-width="1" fill="none" fill-rule="evenodd">
        <g id="Analytics-&gt;-Overview" transform="translate(-90.000000, -616.000000)">
            <g id="Most-booked-rooms" transform="translate(60.000000, 588.000000)">
                <g id="Group-2" transform="translate(30.000000, 26.000000)">
                    <mask id="mask-2" fill="white">
                        <use xlink:href="#path-1"></use>
                    </mask>
                    <use id="icon/social/poll_24px" fill="#3359DB" fill-rule="nonzero" xlink:href="#path-1"></use>
                </g>
            </g>
        </g>
    </g>
</svg>