<?xml version="1.0" encoding="UTF-8"?>
<svg width="13px" height="10px" viewBox="0 0 13 10" version="1.1" xmlns="http://www.w3.org/2000/svg" xmlns:xlink="http://www.w3.org/1999/xlink">
    <!-- Generator: sketchtool 58 (101010) - https://sketch.com -->
    <title>9F85A849-2538-4814-893B-EA2D2DB3A984</title>
    <desc>Created with sketchtool.</desc>
    <g id="Style-Guide" stroke="none" stroke-width="1" fill="none" fill-rule="evenodd">
        <g id="Icons" transform="translate(-197.000000, -452.000000)" fill="#333A3F" fill-rule="nonzero">
            <g id="Resources_inactive" transform="translate(197.000000, 452.000000)">
                <path d="M3.419,4.4408921e-15 L0.468,4.4408921e-15 C0.208,4.4408921e-15 -8.8817842e-15,0.208 -8.8817842e-15,0.468 L-8.8817842e-15,3.419 C-8.8817842e-15,3.679 0.208,3.887 0.468,3.887 L3.419,3.887 C3.679,3.887 3.887,3.679 3.887,3.419 L3.887,0.481 C3.9,0.221 3.679,4.4408921e-15 3.419,4.4408921e-15 Z M2.951,2.951 L0.949,2.951 L0.949,0.949 L2.951,0.949 L2.951,2.951 L2.951,2.951 Z" id="Shape"></path>
                <path d="M5.928,0.949 L11.882,0.949 C12.142,0.949 12.35,0.741 12.35,0.481 C12.35,0.221 12.142,0.013 11.882,0.013 L5.928,0.013 C5.668,0.013 5.46,0.221 5.46,0.481 C5.46,0.741 5.668,0.949 5.928,0.949 Z" id="Path"></path>
                <path d="M5.928,3.9 L10.244,3.9 C10.504,3.9 10.712,3.692 10.712,3.432 C10.712,3.172 10.504,2.951 10.244,2.951 L5.928,2.951 C5.668,2.951 5.46,3.159 5.46,3.419 C5.46,3.679 5.668,3.9 5.928,3.9 Z" id="Path"></path>
                <path d="M3.419,5.902 L0.468,5.902 C0.208,5.902 -8.8817842e-15,6.11 -8.8817842e-15,6.37 L-8.8817842e-15,9.321 C-8.8817842e-15,9.581 0.208,9.789 0.468,9.789 L3.419,9.789 C3.679,9.789 3.887,9.581 3.887,9.321 L3.887,6.37 C3.9,6.11 3.679,5.902 3.419,5.902 Z M2.951,8.853 L0.949,8.853 L0.949,6.851 L2.951,6.851 L2.951,8.853 L2.951,8.853 Z" id="Shape"></path>
                <path d="M11.882,5.902 L5.928,5.902 C5.668,5.902 5.46,6.11 5.46,6.37 C5.46,6.63 5.668,6.838 5.928,6.838 L11.882,6.838 C12.142,6.838 12.35,6.63 12.35,6.37 C12.35,6.11 12.142,5.902 11.882,5.902 Z" id="Path"></path>
                <path d="M10.244,8.853 L5.928,8.853 C5.668,8.853 5.46,9.061 5.46,9.321 C5.46,9.581 5.668,9.789 5.928,9.789 L10.244,9.789 C10.504,9.789 10.712,9.581 10.712,9.321 C10.712,9.061 10.504,8.853 10.244,8.853 Z" id="Path"></path>
            </g>
        </g>
    </g>
</svg>
