<?xml version="1.0"?>
<svg xmlns="http://www.w3.org/2000/svg" xmlns:xlink="http://www.w3.org/1999/xlink" version="1.1" id="Capa_1" x="0px" y="0px" viewBox="0 0 17.573 17.573" style="enable-background:new 0 0 17.573 17.573;" xml:space="preserve" width="27px" height="27px" class=""><g><g>
	<g>
		<path d="M8.211,11.386H1.187V5.361l5.814,4.145C7.203,9.651,7.489,9.65,7.69,9.507l5.813-4.146v2.84    c0.04,0.016,0.083,0.021,0.12,0.043C14.041,8.466,14.3,8.895,14.3,9.368v0.401c0.131,0.032,0.262,0.067,0.392,0.105V4.209    c0-0.031-0.004-0.059-0.008-0.085c0.004-0.032,0.008-0.063,0.008-0.095V3.32c0-0.327-0.267-0.593-0.595-0.593H0.594    C0.266,2.727,0,2.993,0,3.32v0.738c0,0.029,0.002,0.057,0.006,0.081C0.002,4.162,0,4.185,0,4.209v7.771    c0,0.327,0.267,0.593,0.594,0.593h7.799c-0.165-0.218-0.265-0.481-0.265-0.765C8.129,11.661,8.162,11.521,8.211,11.386z     M13.244,3.914L7.345,8.189L1.41,3.914H13.244z" data-original="#030104" class="active-path" data-old_color="#030104" fill="#FFAF30"/>
		<path d="M13.33,10.654V9.185c0-0.072-0.04-0.139-0.103-0.173c-0.066-0.034-0.144-0.031-0.202,0.01    l-4.061,2.732c-0.055,0.038-0.088,0.099-0.088,0.163c0,0.065,0.033,0.127,0.088,0.162l4.059,2.732    c0.06,0.04,0.137,0.045,0.202,0.012c0.063-0.035,0.104-0.102,0.104-0.173v-1.581c0.639,0.005,1.166,0.032,1.606,0.085    c2.112,0.251,2.238,1.519,2.262,1.572c0.029,0.073,0.103,0.12,0.181,0.12c0.012,0,0.025-0.001,0.037-0.004    c0.092-0.019,0.158-0.099,0.158-0.192C17.573,11.451,14.213,10.768,13.33,10.654z" data-original="#030104" class="active-path" data-old_color="#030104" fill="#FFAF30"/>
	</g>
</g></g> </svg>
