<?xml version="1.0" encoding="UTF-8"?>
<svg width="17px" height="16px" viewBox="0 0 17 16" version="1.1" xmlns="http://www.w3.org/2000/svg" xmlns:xlink="http://www.w3.org/1999/xlink">
    <!-- Generator: sketchtool 49.3 (51167) - http://www.bohemiancoding.com/sketch -->
    <title>7C9F28BA-285D-43A7-B54D-C2FE715C16A9</title>
    <desc>Created with sketchtool.</desc>
    <defs></defs>
    <g id="Web" stroke="none" stroke-width="1" fill="none" fill-rule="evenodd" opacity="0.4">
        <g id="Offices" transform="translate(-1092.000000, -26.000000)" fill="#BCBCBC">
            <g id="Header">
                <g id="Top" transform="translate(899.000000, 18.000000)">
                    <g id="Search">
                        <path d="M199.25,19.5134 C196.346,19.5134 193.992,17.1594 193.992,14.2554 C193.992,11.3514 196.346,8.9964 199.25,8.9964 C202.154,8.9964 204.508,11.3514 204.508,14.2554 C204.508,17.1594 202.154,19.5134 199.25,19.5134 M208.907,23.1464 L204.048,18.2574 C204.954,17.1734 205.5,15.7784 205.5,14.2554 C205.5,10.8034 202.702,8.0054 199.25,8.0054 C195.798,8.0054 193,10.8034 193,14.2554 C193,17.7064 195.798,20.5054 199.25,20.5054 C200.818,20.5054 202.248,19.9234 203.345,18.9694 L208.2,23.8534 C208.395,24.0484 208.712,24.0484 208.907,23.8534 C209.102,23.6584 209.102,23.3414 208.907,23.1464" id="Loupe"></path>
                    </g>
                </g>
            </g>
        </g>
    </g>
</svg>