<?xml version="1.0" encoding="UTF-8"?>
<svg width="22px" height="22px" viewBox="0 0 22 22" version="1.1" xmlns="http://www.w3.org/2000/svg" xmlns:xlink="http://www.w3.org/1999/xlink">
    <!-- Generator: sketchtool 49.3 (51167) - http://www.bohemiancoding.com/sketch -->
    <title>A9150E2A-94C4-4317-A41C-9521E4F91C77</title>
    <desc>Created with sketchtool.</desc>
    <defs>
        <path d="M18.607232,7.98891013 C18.7161913,8.14953888 18.8983092,8.24921275 19.0941667,8.25 L19.25,8.25 C20.7687831,8.25 22,9.48121694 22,11 C22,12.5187831 20.7687831,13.75 19.25,13.75 L19.171156,13.7499927 C18.9336738,13.7509399 18.7194306,13.8928228 18.6258782,14.1111038 C18.52361,14.3429563 18.5708002,14.6032175 18.7340145,14.7701521 L18.7886539,14.8247917 C19.3050408,15.3406044 19.5951922,16.0405412 19.5951922,16.7704167 C19.5951922,17.5002921 19.3050408,18.200229 18.789375,18.7153206 C18.2735623,19.2317074 17.5736254,19.5218589 16.84375,19.5218589 C16.1138746,19.5218589 15.4139377,19.2317074 14.8984855,18.7156812 L14.8506738,18.6677907 C14.6765508,18.4974669 14.4162896,18.4502767 14.1844372,18.5525448 C13.9661561,18.6460973 13.8242732,18.8603405 13.8233333,19.0941667 L13.8233333,19.25 C13.8233333,20.7687831 12.5921164,22 11.0733333,22 C9.55455027,22 8.32333333,20.7687831 8.32333333,19.25 C8.31786278,18.9443448 8.16320436,18.7281094 7.87988177,18.6219574 C7.65704369,18.52361 7.39678253,18.5708002 7.22984788,18.7340145 L7.17520833,18.7886539 C6.65939563,19.3050408 5.95945877,19.5951922 5.22958333,19.5951922 C4.4997079,19.5951922 3.79977104,19.3050408 3.28467944,18.789375 C2.76829257,18.2735623 2.47814113,17.5736254 2.47814113,16.84375 C2.47814113,16.1138746 2.76829257,15.4139377 3.28431878,14.8984855 L3.3322093,14.8506738 C3.50253309,14.6765508 3.5497233,14.4162896 3.44745516,14.1844372 C3.35390272,13.9661561 3.13965955,13.8242732 2.90583333,13.8233333 L2.75,13.8233333 C1.23121694,13.8233333 3.05311332e-16,12.5921164 0,11.0733333 C-2.03540888e-16,9.55455027 1.23121694,8.32333333 2.75,8.32333333 C3.05565522,8.31786278 3.27189059,8.16320436 3.37804263,7.87988177 C3.47638996,7.65704369 3.42919975,7.39678253 3.26598545,7.22984788 L3.2113461,7.17520833 C2.69495923,6.65939563 2.4048078,5.95945877 2.4048078,5.22958333 C2.4048078,4.4997079 2.69495923,3.79977104 3.210625,3.28467944 C3.72643771,2.76829257 4.42637457,2.47814113 5.15625,2.47814113 C5.88612543,2.47814113 6.58606229,2.76829257 7.10151455,3.28431878 L7.14932621,3.3322093 C7.3234492,3.50253309 7.58371036,3.5497233 7.80654844,3.45137596 C7.86528093,3.42545497 7.92641105,3.40584669 7.98891013,3.392768 C8.14953888,3.28380869 8.24921275,3.10169081 8.25,2.90583333 L8.25,2.75 C8.25,1.23121694 9.48121694,3.05311332e-16 11,0 C12.5187831,0 13.75,1.23121694 13.75,2.75 L13.7499927,2.82884405 C13.7509399,3.06632621 13.8928228,3.28056939 14.1201182,3.37804263 C14.3429563,3.47638996 14.6032175,3.42919975 14.7701521,3.26598545 L14.8247917,3.2113461 C15.3406044,2.69495923 16.0405412,2.4048078 16.7704167,2.4048078 C17.5002921,2.4048078 18.200229,2.69495923 18.7153206,3.210625 C19.2317074,3.72643771 19.5218589,4.42637457 19.5218589,5.15625 C19.5218589,5.88612543 19.2317074,6.58606229 18.7156812,7.10151455 L18.6677907,7.14932621 C18.4974669,7.3234492 18.4502767,7.58371036 18.548624,7.80654844 C18.574545,7.86528093 18.5941533,7.92641105 18.607232,7.98891013 Z M8.36897044,5.19891358 C7.50265799,5.50260154 6.53091067,5.29187741 5.86015212,4.63568122 L5.80479167,4.58032056 C5.6328541,4.40819161 5.39954181,4.31147446 5.15625,4.31147446 C4.91295819,4.31147446 4.6796459,4.40819161 4.50698723,4.58104167 C4.33485828,4.75297924 4.23814113,4.98629152 4.23814113,5.22958333 C4.23814113,5.47287514 4.33485828,5.70618743 4.50734788,5.87848545 L4.56945737,5.94067379 C5.26385436,6.65055981 5.45624521,7.71162452 5.07699143,8.566416 C4.73268992,9.50256055 3.85111494,10.133091 2.8325,10.1566667 L2.75,10.1566667 C2.24373898,10.1566667 1.83333333,10.5670723 1.83333333,11.0733333 C1.83333333,11.5795944 2.24373898,11.99 2.75,11.99 L2.90948929,11.9900073 C3.87768581,11.9938688 4.75113876,12.5723145 5.12862404,13.4532151 C5.52957854,14.3617088 5.33718769,15.4227735 4.63568122,16.1398479 L4.58032056,16.1952083 C4.40819161,16.3671459 4.31147446,16.6004582 4.31147446,16.84375 C4.31147446,17.0870418 4.40819161,17.3203541 4.58104167,17.4930128 C4.75297924,17.6651417 4.98629152,17.7618589 5.22958333,17.7618589 C5.47287514,17.7618589 5.70618743,17.6651417 5.87848545,17.4926521 L5.94067379,17.4305426 C6.65055981,16.7361456 7.71162452,16.5437548 8.566416,16.9230086 C9.50256055,17.2673101 10.133091,18.1488851 10.1566667,19.1675 L10.1566667,19.25 C10.1566667,19.756261 10.5670723,20.1666667 11.0733333,20.1666667 C11.5795944,20.1666667 11.99,19.756261 11.99,19.25 L11.9900073,19.0905107 C11.9938688,18.1223142 12.5723145,17.2488612 13.4532151,16.871376 C14.3617088,16.4704215 15.4227735,16.6628123 16.1398479,17.3643188 L16.1952083,17.4196794 C16.3671459,17.5918084 16.6004582,17.6885255 16.84375,17.6885255 C17.0870418,17.6885255 17.3203541,17.5918084 17.4930128,17.4189583 C17.6651417,17.2470208 17.7618589,17.0137085 17.7618589,16.7704167 C17.7618589,16.5271249 17.6651417,16.2938126 17.4926521,16.1215145 L17.4305426,16.0593262 C16.7361456,15.3494402 16.5437548,14.2883755 16.9447093,13.3798818 C17.3221946,12.4989811 18.1956475,11.9205355 19.1675,11.9166667 L19.25,11.9166667 C19.756261,11.9166667 20.1666667,11.506261 20.1666667,11 C20.1666667,10.493739 19.756261,10.0833333 19.25,10.0833333 L19.0905107,10.083326 C18.1223142,10.0794645 17.2488612,9.50101888 16.8674552,8.61110382 C16.8342575,8.53364538 16.8119751,8.45215734 16.8010864,8.36897044 C16.4973985,7.50265799 16.7081226,6.53091067 17.3643188,5.86015212 L17.4196794,5.80479167 C17.5918084,5.6328541 17.6885255,5.39954181 17.6885255,5.15625 C17.6885255,4.91295819 17.5918084,4.6796459 17.4189583,4.50698723 C17.2470208,4.33485828 17.0137085,4.23814113 16.7704167,4.23814113 C16.5271249,4.23814113 16.2938126,4.33485828 16.1215145,4.50734788 L16.0593262,4.56945737 C15.3494402,5.26385436 14.2883755,5.45624521 13.3888962,5.05921151 C12.4989811,4.67780542 11.9205355,3.80435248 11.9166667,2.8325 L11.9166667,2.75 C11.9166667,2.24373898 11.506261,1.83333333 11,1.83333333 C10.493739,1.83333333 10.0833333,2.24373898 10.0833333,2.75 L10.083326,2.90948929 C10.0794645,3.87768581 9.50101888,4.75113876 8.61110382,5.13254484 C8.53364538,5.16574252 8.45215734,5.18802491 8.36897044,5.19891358 Z M11,14.6666667 C8.97495592,14.6666667 7.33333333,13.0250441 7.33333333,11 C7.33333333,8.97495592 8.97495592,7.33333333 11,7.33333333 C13.0250441,7.33333333 14.6666667,8.97495592 14.6666667,11 C14.6666667,13.0250441 13.0250441,14.6666667 11,14.6666667 Z M11,12.8333333 C12.012522,12.8333333 12.8333333,12.012522 12.8333333,11 C12.8333333,9.98747796 12.012522,9.16666667 11,9.16666667 C9.98747796,9.16666667 9.16666667,9.98747796 9.16666667,11 C9.16666667,12.012522 9.98747796,12.8333333 11,12.8333333 Z" id="path-1"></path>
    </defs>
    <g id="Web" stroke="none" stroke-width="1" fill="none" fill-rule="evenodd">
        <g id="Offices" transform="translate(-643.000000, -93.000000)">
            <g id="Header">
                <g id="Menu" transform="translate(487.000000, 92.000000)">
                    <g id="Settings" transform="translate(156.000000, 0.000000)">
                        <g id="settings" transform="translate(0.000000, 1.000000)">
                            <mask id="mask-2" fill="white">
                                <use xlink:href="#path-1"></use>
                            </mask>
                            <use id="Combined-Shape" fill="#0459E4" fill-rule="nonzero" xlink:href="#path-1"></use>
                        </g>
                    </g>
                </g>
            </g>
        </g>
    </g>
</svg>