<?xml version="1.0" encoding="UTF-8"?>
<svg width="15px" height="15px" viewBox="0 0 15 15" version="1.1" xmlns="http://www.w3.org/2000/svg" xmlns:xlink="http://www.w3.org/1999/xlink">
    <!-- Generator: sketchtool 58 (101010) - https://sketch.com -->
    <title>FC6E317D-D9F4-4BF7-8B1A-124F8BE3C41A</title>
    <desc>Created with sketchtool.</desc>
    <g id="Style-Guide" stroke="none" stroke-width="1" fill="none" fill-rule="evenodd">
        <g id="Icons" transform="translate(-196.000000, -342.000000)" fill="#333A3F" fill-rule="nonzero">
            <g id="Setup_inactive" transform="translate(196.000000, 342.000000)">
                <path d="M10.74,14.4 L0.3,14.4 C0.12,14.4 0,14.28 0,14.1 L0,6.9 C0,6.78 0.06,6.69 0.18,6.63 L7.02,3.54 C7.08,3.51 7.17,3.51 7.23,3.54 L10.83,4.8 C10.95,4.83 11.04,4.95 11.04,5.07 L11.04,14.1 C11.04,14.28 10.92,14.4 10.74,14.4 Z M0.6,13.8 L10.44,13.8 L10.44,5.28 L7.14,4.14 L0.6,7.08 L0.6,13.8 Z" id="Shape"></path>
                <path d="M7.11,14.4 C6.93,14.4 6.81,14.28 6.81,14.1 L6.81,4.05 C6.81,3.87 6.93,3.75 7.11,3.75 C7.29,3.75 7.41,3.87 7.41,4.05 L7.41,14.1 C7.41,14.28 7.29,14.4 7.11,14.4 Z" id="Path"></path>
                <g id="Group" transform="translate(0.900000, 6.300000)">
                    <path d="M0.45,2.1 C0.33,2.1 0.21,2.01 0.15,1.89 C0.09,1.74 0.18,1.56 0.36,1.5 L4.62,0.18 C4.77,0.12 4.95,0.21 5.01,0.39 C5.07,0.54 4.98,0.72 4.8,0.78 L0.54,2.1 C0.51,2.1 0.48,2.1 0.45,2.1 Z" id="Path"></path>
                    <path d="M0.45,3.69 C0.3,3.69 0.18,3.6 0.15,3.45 C0.12,3.3 0.21,3.12 0.39,3.09 L4.65,2.19 C4.8,2.16 4.98,2.25 5.01,2.43 C5.04,2.58 4.95,2.76 4.77,2.79 L0.51,3.69 C0.48,3.69 0.48,3.69 0.45,3.69 Z" id="Path"></path>
                    <path d="M0.45,5.25 C0.3,5.25 0.18,5.13 0.15,4.98 C0.12,4.83 0.24,4.68 0.42,4.65 L4.68,4.2 C4.83,4.17 4.98,4.29 5.01,4.47 C5.04,4.62 4.92,4.77 4.74,4.8 L0.48,5.25 C0.48,5.25 0.45,5.25 0.45,5.25 Z" id="Path"></path>
                    <path d="M4.71,6.84 L0.45,6.84 C0.27,6.84 0.15,6.72 0.15,6.54 C0.15,6.36 0.27,6.24 0.45,6.24 L4.71,6.24 C4.89,6.24 5.01,6.36 5.01,6.54 C5.01,6.72 4.89,6.84 4.71,6.84 Z" id="Path"></path>
                </g>
                <path d="M14.1,14.4 L9.51,14.4 C9.33,14.4 9.21,14.28 9.21,14.1 C9.21,13.92 9.33,13.8 9.51,13.8 L13.8,13.8 L13.8,1.95 L9.72,0.63 L5.82,2.37 L5.82,4.38 C5.82,4.56 5.7,4.68 5.52,4.68 C5.34,4.68 5.22,4.56 5.22,4.38 L5.22,2.16 C5.22,2.04 5.28,1.92 5.4,1.89 L9.57,0.03 C9.63,0 9.72,0 9.78,0 L14.19,1.44 C14.31,1.5 14.4,1.62 14.4,1.74 L14.4,14.1 C14.4,14.28 14.28,14.4 14.1,14.4 Z" id="Path"></path>
                <path d="M12.3,4.11 C12.12,4.11 12,3.99 12,3.81 L12,2.64 C12,2.46 12.12,2.34 12.3,2.34 C12.48,2.34 12.6,2.46 12.6,2.64 L12.6,3.81 C12.6,3.99 12.48,4.11 12.3,4.11 Z" id="Path"></path>
                <path d="M12.3,6.21 C12.12,6.21 12,6.09 12,5.91 L12,4.74 C12,4.56 12.12,4.44 12.3,4.44 C12.48,4.44 12.6,4.56 12.6,4.74 L12.6,5.91 C12.6,6.09 12.48,6.21 12.3,6.21 Z" id="Path"></path>
                <path d="M12.3,8.34 C12.12,8.34 12,8.22 12,8.04 L12,6.84 C12,6.66 12.12,6.54 12.3,6.54 C12.48,6.54 12.6,6.66 12.6,6.84 L12.6,8.04 C12.6,8.22 12.48,8.34 12.3,8.34 Z" id="Path"></path>
                <path d="M12.3,10.44 C12.12,10.44 12,10.32 12,10.14 L12,8.97 C12,8.79 12.12,8.67 12.3,8.67 C12.48,8.67 12.6,8.79 12.6,8.97 L12.6,10.14 C12.6,10.32 12.48,10.44 12.3,10.44 Z" id="Path"></path>
                <path d="M12.3,12.54 C12.12,12.54 12,12.42 12,12.24 L12,11.07 C12,10.89 12.12,10.77 12.3,10.77 C12.48,10.77 12.6,10.89 12.6,11.07 L12.6,12.24 C12.6,12.42 12.48,12.54 12.3,12.54 Z" id="Path"></path>
            </g>
        </g>
    </g>
</svg>
