<?xml version="1.0" encoding="UTF-8"?>
<svg width="20px" height="12px" viewBox="0 0 20 12" version="1.1" xmlns="http://www.w3.org/2000/svg" xmlns:xlink="http://www.w3.org/1999/xlink">
    <!-- Generator: sketchtool 58 (101010) - https://sketch.com -->
    <title>0C5DF852-708D-4A0A-8D3E-4F2E52B2F25D</title>
    <desc>Created with sketchtool.</desc>
    <g id="Hi-Fi" stroke="none" stroke-width="1" fill="none" fill-rule="evenodd">
        <g id="Landing-Page-&gt;-Hide" transform="translate(-1317.000000, -75.000000)" fill="#FFFFFF" fill-rule="nonzero" stroke="#FFFFFF">
            <g id="Group" transform="translate(1243.000000, 58.000000)">
                <g id="Group-4" transform="translate(3.000000, 0.000000)">
                    <g id="Show-Icon" transform="translate(72.000000, 18.000000)">
                        <path d="M9,1.8 C7.24,1.8 5.8,3.24 5.8,5 C5.8,6.76 7.24,8.2 9,8.2 C10.76,8.2 12.2,6.76 12.2,5 C12.2,3.24 10.76,1.8 9,1.8 Z M9,7.4 C7.68,7.4 6.6,6.32 6.6,5 C6.6,3.68 7.68,2.6 9,2.6 C10.32,2.6 11.4,3.68 11.4,5 C11.4,6.32 10.32,7.4 9,7.4 Z M17.88,4.72 L16.16,2.98 C14.26,1.06 11.72,0 9,0 C6.28,0 3.74,1.06 1.84,2.98 L0.12,4.72 C-0.04,4.88 -0.04,5.12 0.12,5.28 L1.84,7.02 C3.74,8.94 6.28,10 9,10 C11.72,10 14.26,8.94 16.16,7.02 L17.88,5.28 C18.04,5.12 18.04,4.88 17.88,4.72 Z M15.6,6.46 C13.84,8.22 11.5,9.2 9,9.2 C6.5,9.2 4.16,8.22 2.4,6.46 L0.96,5 L2.4,3.54 C4.16,1.78 6.5,0.8 9,0.8 C11.5,0.8 13.84,1.78 15.6,3.54 L17.04,5 L15.6,6.46 Z" id="Shape"></path>
                    </g>
                </g>
            </g>
        </g>
    </g>
</svg>
