<?xml version="1.0" encoding="UTF-8"?>
<svg width="15px" height="15px" viewBox="0 0 15 15" version="1.1" xmlns="http://www.w3.org/2000/svg" xmlns:xlink="http://www.w3.org/1999/xlink">
    <!-- Generator: sketchtool 58 (101010) - https://sketch.com -->
    <title>371B3CC7-A8BC-4878-BEDA-B718BEAC65EC</title>
    <desc>Created with sketchtool.</desc>
    <g id="Style-Guide" stroke="none" stroke-width="1" fill="none" fill-rule="evenodd">
        <g id="Icons" transform="translate(-196.000000, -398.000000)" fill="#333A3F" fill-rule="nonzero">
            <g id="Tablet_inactive" transform="translate(196.000000, 398.000000)">
                <path d="M1.761,8.595 C1.14833533,8.62855014 0.669484196,9.13642255 0.671990132,9.75 L0.671990132,12.165 C0.671990132,13.116 1.215,13.815 1.539,14.1465 C1.59636799,14.2042744 1.6403979,14.2739031 1.668,14.3505 L1.7565,14.5995 C1.79798871,14.7299773 1.90728915,14.8274727 2.04164023,14.8538436 C2.1759913,14.8802146 2.31403573,14.8312689 2.40176706,14.7261554 C2.4894984,14.6210418 2.51297031,14.47647 2.463,14.349 L2.376,14.1 C2.31221423,13.9204714 2.20980528,13.7571292 2.076,13.6215 C1.8795,13.4205 1.422,12.8715 1.422,12.165 L1.422,9.75 C1.41482953,9.53868008 1.5743458,9.35872991 1.785,9.3405 C1.89945539,9.33541503 2.0099561,9.38293034 2.085,9.4695 C2.18756091,9.58795349 2.35295644,9.63015596 2.49973311,9.57532368 C2.64650977,9.52049139 2.74372399,9.38018414 2.7435,9.2235 L2.7435,9.15 C2.73915166,8.95742941 2.87399905,8.78966153 3.063,8.7525 C3.1896901,8.73359199 3.31719634,8.78119433 3.4005,8.8785 C3.50450248,8.99031424 3.66591901,9.0278964 3.80861512,8.97352028 C3.95131122,8.91914417 4.04678309,8.78367151 4.05,8.631 L4.05,8.55 C4.044169,8.36443914 4.16946724,8.20029844 4.35,8.157 C4.52967114,8.12077902 4.70919919,8.21974147 4.7745,8.391 C4.83898414,8.55739605 5.01179548,8.6553001 5.18767163,8.62507708 C5.36354778,8.59485405 5.49376261,8.44487718 5.499,8.2665 L5.577,5.3295 C5.57746992,5.15419565 5.70414686,5.00471687 5.877,4.9755 C5.97422399,4.96221836 6.07248662,4.99115125 6.147,5.055 C6.22150145,5.11724977 6.26573836,5.20845427 6.2685,5.3055 L6.429,10.902 C6.43315455,11.023294 6.49575336,11.1350776 6.597,11.202 C7.014,11.4765 7.5225,11.2365 7.809,10.857 C7.81776288,10.845005 7.82577808,10.8324812 7.833,10.8195 L8.25,10.104 C8.44724312,9.76978191 8.82534527,9.58604789 9.21,9.6375 C9.21998088,9.63839831 9.2286432,9.64475068 9.2325,9.654 C9.23818901,9.66319088 9.23818901,9.67480912 9.2325,9.684 L7.659,12.7215 C7.58193497,12.8682366 7.46627839,12.9911541 7.3245,13.077 L6.5745,13.389 C6.2344357,13.5053921 5.96709663,13.7721777 5.85,14.112 L5.7675,14.3505 C5.6999832,14.546423 5.80407699,14.7599832 6,14.8275 C6.19592301,14.8950168 6.40948318,14.790923 6.477,14.595 L6.5595,14.3565 C6.60142789,14.2353118 6.69733252,14.1405159 6.819,14.1 L6.8475,14.0895 L7.6365,13.7625 L7.68,13.7415 C7.95444804,13.5839625 8.17821675,13.3513471 8.325,13.071 L9.9,10.029 C10.0183244,9.80340377 10.0190296,9.53424194 9.90188885,9.30802883 C9.78474811,9.08181571 9.56452355,8.92705871 9.312,8.8935 C8.62796097,8.80155385 7.95540654,9.12837512 7.605,9.723 L7.2,10.422 L7.1685,10.458 L7.0185,5.283 C7.0089092,4.97384631 6.86884158,4.68321502 6.63299566,4.48310333 C6.39714973,4.28299164 6.08758901,4.19212009 5.781,4.233 C5.24546816,4.31362709 4.84511825,4.76710401 4.8315,5.3085 L4.7745,7.4565 C4.59395296,7.39785903 4.40157344,7.38548072 4.215,7.4205 C3.86576661,7.48787252 3.56976466,7.71809626 3.4185,8.04 C2.89304246,7.89084251 2.33700066,8.14503305 2.106,8.64 C1.99409606,8.60688422 1.87765433,8.59169617 1.761,8.595 Z" id="Path"></path>
                <path d="M11.3565,9.83250001 C11.5636068,9.83250001 11.7315,9.66460678 11.7315,9.4575 L11.7315,2.1 C11.7315,1.89289322 11.5636068,1.725 11.3565,1.725 L2.493,1.725 C2.28589322,1.725 2.118,1.89289322 2.118,2.1 L2.118,6.8565 C2.118,7.06360678 2.28589322,7.2315 2.493,7.2315 C2.70010678,7.2315 2.868,7.06360678 2.868,6.8565 L2.868,2.4735 L10.9815,2.4735 L10.9815,9.45 C10.9794846,9.55074923 11.0181019,9.6480701 11.0886477,9.72002679 C11.1591934,9.79198347 11.2557306,9.83250001 11.3565,9.83250001 Z" id="Path"></path>
                <path d="M14.274,9.3 L14.274,2.25 C14.2591758,1.07702763 13.2974994,0.137497308 12.1245,0.15 L2.2755,0.15 C1.10250059,0.137497308 0.140824195,1.07702763 0.126,2.25 L0.126,7.95 C0.126,8.15710678 0.293893219,8.325 0.501,8.325 C0.708106781,8.325 0.876,8.15710678 0.876,7.95 L0.876,2.25 C0.890776991,1.49122949 1.5166893,0.887455562 2.2755,0.9 L12.1245,0.9 C12.8833107,0.887455562 13.509223,1.49122949 13.524,2.25 L13.524,9.3 C13.509223,10.0587705 12.8833107,10.6625444 12.1245,10.65 L10.461,10.65 C10.2538932,10.65 10.086,10.8178932 10.086,11.025 C10.086,11.2321068 10.2538932,11.4 10.461,11.4 L12.1245,11.4 C13.2974994,11.4125027 14.2591758,10.4729724 14.274,9.3 Z" id="Path"></path>
                <path d="M12.987,6.4725 L12.987,5.082 C12.987,4.87489322 12.8191068,4.707 12.612,4.707 C12.4048932,4.707 12.237,4.87489322 12.237,5.082 L12.237,6.474 C12.237,6.68110678 12.4048932,6.849 12.612,6.849 C12.8191068,6.849 12.987,6.68110678 12.987,6.474 L12.987,6.4725 Z" id="Path"></path>
            </g>
        </g>
    </g>
</svg>
