<?xml version="1.0" encoding="UTF-8"?>
<svg width="20px" height="20px" viewBox="0 0 20 20" version="1.1" xmlns="http://www.w3.org/2000/svg" xmlns:xlink="http://www.w3.org/1999/xlink">
    <!-- Generator: sketchtool 52.1 (67048) - http://www.bohemiancoding.com/sketch -->
    <title>524A703B-51CF-405D-8A95-CCF8A54A4207</title>
    <desc>Created with sketchtool.</desc>
    <defs>
        <path d="M10,0 C4.5,0 0,4.5 0,10 C0,15.5 4.5,20 10,20 C15.5,20 20,15.5 20,10 C20,4.5 15.5,0 10,0 Z M13.55,13.8 L9.47,11.29 C9.17,11.11 8.99,10.79 8.99,10.44 L8.99,5.75 C9,5.34 9.34,5 9.75,5 C10.16,5 10.5,5.34 10.5,5.75 L10.5,10.2 L14.34,12.51 C14.7,12.73 14.82,13.2 14.6,13.56 C14.38,13.91 13.91,14.02 13.55,13.8 Z" id="path-1"></path>
    </defs>
    <g id="Web" stroke="none" stroke-width="1" fill="none" fill-rule="evenodd">
        <g id="Analytics-&gt;-Overview" transform="translate(-92.000000, -1370.000000)">
            <g id="Most-booked-rooms-Copy" transform="translate(60.000000, 1342.000000)">
                <g id="Group-2" transform="translate(32.000000, 26.000000)">
                    <g id="icon/action/alarm_on_24px" transform="translate(0.000000, 2.000000)">
                        <mask id="mask-2" fill="white">
                            <use xlink:href="#path-1"></use>
                        </mask>
                        <use id="icon/action/watch_later_24px" fill="#3359DB" fill-rule="nonzero" xlink:href="#path-1"></use>
                    </g>
                </g>
            </g>
        </g>
    </g>
</svg>