<?xml version="1.0" encoding="UTF-8"?>
<svg width="303px" height="229px" viewBox="0 0 303 229" version="1.1" xmlns="http://www.w3.org/2000/svg" xmlns:xlink="http://www.w3.org/1999/xlink">
    <!-- Generator: sketchtool 58 (101010) - https://sketch.com -->
    <title>29212372-0F88-45FD-BA88-73E6925A1ECC</title>
    <desc>Created with sketchtool.</desc>
    <g id="Hi-Fi" stroke="none" stroke-width="1" fill="none" fill-rule="evenodd">
        <g id="Setup" transform="translate(-609.000000, -234.000000)" fill-rule="nonzero">
            <g id="undraw_apartment_rent_o0ut" transform="translate(609.000000, 234.000000)">
                <rect id="Rectangle" fill="#4285F4" x="188.521725" y="88.5" width="25.8" height="16.5"></rect>
                <rect id="Rectangle" fill="#4285F4" x="148.321725" y="114.3" width="25.8" height="16.5"></rect>
                <path d="M289.74345,93.9 L289.74345,58.8 L270.24345,58.8 L270.24345,36 L257.04345,36 L257.04345,58.8 L237.54345,58.8 L237.54345,93.9 L226.74345,93.9 L226.74345,15 L204.84345,15 L204.84345,7.5 L175.74345,7.5 L175.74345,0 L146.94345,0 L146.94345,7.5 L119.64345,7.5 L119.64345,15 L95.94345,15 L95.94345,93.6 L83.34345,93.6 L83.34345,58.5 L63.84345,58.5 L63.84345,35.7 L50.64345,35.7 L50.64345,58.5 L31.14345,58.5 L31.14345,93.6 L18.54345,93.6 L18.54345,218.1 L47.34345,218.1 L47.34345,174 L67.14345,174 L67.14345,218.1 L144.54345,218.1 L144.54345,166.8 L178.14345,166.8 L178.14345,218.1 L224.94345,218.1 L224.94345,218.4 L253.74345,218.4 L253.74345,174.3 L273.54345,174.3 L273.54345,218.4 L302.34345,218.4 L302.34345,93.9 L289.74345,93.9 Z M28.89345,108.9 L40.29345,108.9 L40.29345,117.9 L28.89345,117.9 L28.89345,108.9 Z M29.04345,134.1 L40.44345,134.1 L40.44345,143.1 L29.04345,143.1 L29.04345,134.1 Z M40.59345,168.3 L29.19345,168.3 L29.19345,159.3 L40.59345,159.3 L40.59345,168.3 Z M70.44345,87 L44.04345,87 L44.04345,81.6 L70.44345,81.6 L70.44345,87 Z M70.44345,79.2 L44.04345,79.2 L44.04345,73.8 L70.44345,73.8 L70.44345,79.2 Z M70.44345,71.4 L44.04345,71.4 L44.04345,66 L70.44345,66 L70.44345,71.4 Z M74.19345,108.9 L85.59345,108.9 L85.59345,117.9 L74.19345,117.9 L74.19345,108.9 Z M74.34345,134.1 L85.74345,134.1 L85.74345,143.1 L74.34345,143.1 L74.34345,134.1 Z M85.89345,168.3 L74.49345,168.3 L74.49345,159.3 L85.89345,159.3 L85.89345,168.3 Z M132.54345,153.3 L111.54345,153.3 L111.54345,144 L132.54345,144 L132.54345,153.3 Z M132.54345,126.6 L111.54345,126.6 L111.54345,117.3 L132.54345,117.3 L132.54345,126.6 Z M132.54345,99.9 L111.54345,99.9 L111.54345,90.6 L132.54345,90.6 L132.54345,99.9 Z M132.54345,73.2 L111.54345,73.2 L111.54345,63.9 L132.54345,63.9 L132.54345,73.2 Z M132.54345,46.5 L111.54345,46.5 L111.54345,37.2 L132.54345,37.2 L132.54345,46.5 Z M171.84345,153.3 L150.84345,153.3 L150.84345,144 L171.84345,144 L171.84345,153.3 Z M171.84345,126.6 L150.84345,126.6 L150.84345,117.3 L171.84345,117.3 L171.84345,126.6 Z M171.84345,99.9 L150.84345,99.9 L150.84345,90.6 L171.84345,90.6 L171.84345,99.9 Z M171.84345,73.2 L150.84345,73.2 L150.84345,63.9 L171.84345,63.9 L171.84345,73.2 Z M171.84345,46.5 L150.84345,46.5 L150.84345,37.2 L171.84345,37.2 L171.84345,46.5 Z M211.14345,153.3 L190.14345,153.3 L190.14345,144 L211.14345,144 L211.14345,153.3 Z M211.14345,126.6 L190.14345,126.6 L190.14345,117.3 L211.14345,117.3 L211.14345,126.6 Z M211.14345,99.9 L190.14345,99.9 L190.14345,90.6 L211.14345,90.6 L211.14345,99.9 Z M211.14345,73.2 L190.14345,73.2 L190.14345,63.9 L211.14345,63.9 L211.14345,73.2 Z M211.14345,46.5 L190.14345,46.5 L190.14345,37.2 L211.14345,37.2 L211.14345,46.5 Z M235.29345,109.2 L246.69345,109.2 L246.69345,118.2 L235.29345,118.2 L235.29345,109.2 Z M235.44345,134.4 L246.84345,134.4 L246.84345,143.4 L235.44345,143.4 L235.44345,134.4 Z M246.99345,168.6 L235.59345,168.6 L235.59345,159.6 L246.99345,159.6 L246.99345,168.6 Z M276.84345,87.3 L250.44345,87.3 L250.44345,81.9 L276.84345,81.9 L276.84345,87.3 Z M276.84345,79.5 L250.44345,79.5 L250.44345,74.1 L276.84345,74.1 L276.84345,79.5 Z M276.84345,71.7 L250.44345,71.7 L250.44345,66.3 L276.84345,66.3 L276.84345,71.7 Z M280.59345,109.2 L291.99345,109.2 L291.99345,118.2 L280.59345,118.2 L280.59345,109.2 Z M280.74345,134.4 L292.14345,134.4 L292.14345,143.4 L280.74345,143.4 L280.74345,134.4 Z M292.29345,168.6 L280.89345,168.6 L280.89345,159.6 L292.29345,159.6 L292.29345,168.6 Z" id="Shape" fill="#F2F2F2"></path>
                <path d="M36.30003,187.712859 C36.216114,188.899623 36.084753,190.227045 35.881689,191.621859 L39.549402,187.554228 L39.569598,187.622328 C39.3452932,186.643431 38.9841413,185.701032 38.496798,184.822938 L38.520255,184.887282 L36.30003,187.712859 Z" id="Path" fill="#4285F4"></path>
                <path d="M36.314367,187.50465 L38.465067,184.767645 C38.0075077,183.932664 37.3456625,183.227363 36.541425,182.7177 C36.50202,182.694225 36.462396,182.672163 36.422772,182.650263 C36.43452,182.973504 36.490863,184.87119 36.314367,187.50465 Z" id="Path" fill="#4285F4"></path>
                <path d="M34.374018,198.234852 C34.279516,198.522622 34.181926,198.805196 34.081248,199.082574 L39.482658,195.915546 L39.490221,195.995031 C39.603069,195.502551 39.697057,195.010114 39.772185,194.51772 L34.378905,198.27102 L34.374018,198.234852 Z" id="Path" fill="#4285F4"></path>
                <path d="M35.125224,195.57669 L39.989934,191.564721 L40.003758,191.639796 C40.0209192,190.313229 39.880906,188.989298 39.586644,187.695666 L35.849004,191.840766 C35.652714,193.14721 35.411454,194.392518 35.125224,195.57669 Z" id="Path" fill="#4285F4"></path>
                <path d="M35.765583,191.761872 L29.944659,185.267064 L29.975805,185.193639 C29.4286286,185.964051 28.9606942,186.787779 28.579131,187.652271 L35.221686,194.724501 C35.449284,193.692351 35.626971,192.692943 35.765583,191.761872 Z" id="Path" fill="#4285F4"></path>
                <path d="M28.51629,187.798479 L28.516527,187.798737 C28.527027,187.774677 28.536138,187.7484 28.546722,187.724469 L28.51629,187.798479 Z" id="Path" fill="#4285F4"></path>
                <path d="M28.192425,188.595153 L28.16247,188.669403 C28.171989,188.643903 28.182996,188.62068 28.19259,188.595318 L28.192425,188.595153 Z" id="Path" fill="#4285F4"></path>
                <path d="M35.183361,194.8968 L28.516527,187.798734 C28.403845,188.056892 28.295862,188.322419 28.192578,188.595315 L35.006478,195.647622 C35.06846,195.39591 35.127421,195.145636 35.183361,194.8968 Z" id="Path" fill="#4285F4"></path>
                <path d="M39.786468,194.422926 C39.9191993,193.530143 39.9915376,192.629421 40.00299,191.726898 L35.07249,195.793122 C34.877136,196.581666 34.662189,197.339747 34.427649,198.067365 L39.775977,194.345325 L39.786468,194.422926 Z" id="Path" fill="#4285F4"></path>
                <path d="M27.308472,194.928882 L32.705025,201.969561 C33.1484172,201.112565 33.5400142,200.22975 33.877707,199.325868 L27.292848,192.409644 C27.2275882,193.274282 27.220346,194.142322 27.27117,195.007929 L27.308472,194.928882 Z" id="Path" fill="#4285F4"></path>
                <path d="M36.324162,182.644335 L36.372522,182.622711 C35.190666,181.991271 33.911199,182.059077 32.684886,182.69925 L36.2193,187.499871 C36.409527,184.6506 36.325446,182.6727 36.324162,182.644335 Z" id="Path" fill="#4285F4"></path>
                <path d="M33.906144,199.553595 C33.5963846,200.366871 33.2425606,201.162673 32.846244,201.937464 L38.274573,199.128918 L38.280048,199.207032 C38.6890174,198.516116 39.0088112,197.776174 39.231792,197.004876 C39.318036,196.701436 39.396729,196.397152 39.467871,196.092024 L34.002063,199.296771 C33.970176,199.382556 33.938625,199.468836 33.906144,199.553595 Z" id="Path" fill="#4285F4"></path>
                <path d="M36.204705,187.712127 L32.589225,182.801331 L32.623125,182.731383 C31.5883256,183.330091 30.6990582,184.150672 30.019275,185.134113 L35.792775,191.576013 C35.992596,190.196907 36.121977,188.885082 36.204705,187.712127 Z" id="Path" fill="#4285F4"></path>
                <path d="M33.936825,199.167261 C34.3393496,198.069318 34.6824465,196.950491 34.964625,195.815643 L28.133784,188.745813 C27.971168,189.187413 27.821815,189.646739 27.685725,190.123791 C27.49689,190.807815 27.3708428,191.507639 27.30915,192.214563 L33.93165,199.170282 L33.936825,199.167261 Z" id="Path" fill="#4285F4"></path>
                <path d="M40.953069,206.794647 C40.131531,207.655152 39.183702,208.593747 38.137659,209.538483 L43.556901,208.744959 L43.529001,208.810308 C43.9806058,207.913308 44.303527,206.957132 44.488236,205.969995 L44.465256,206.034522 L40.953069,206.794647 Z" id="Path" fill="#4285F4"></path>
                <path d="M44.324994,203.101374 C44.309613,203.058174 44.29317,203.015901 44.276616,202.973748 C44.079516,203.230224 42.912516,204.727734 41.096916,206.64342 L44.49909,205.907172 C44.6792353,204.97223 44.6193362,204.006874 44.324994,203.101374 L44.324994,203.101374 Z" id="Path" fill="#4285F4"></path>
                <path d="M32.758605,213.670128 C32.502275,213.831484 32.246875,213.986874 31.992405,214.136298 L38.172507,215.142198 L38.127627,215.208243 C38.528647,214.900917 38.915122,214.581593 39.287052,214.250271 L32.739273,213.701121 L32.758605,213.670128 Z" id="Path" fill="#4285F4"></path>
                <path d="M35.032593,212.101977 L41.338233,212.114796 L41.300988,212.181426 C42.1603108,211.170659 42.8969046,210.061679 43.49538,208.877655 L37.972863,209.686248 C36.988417,210.56726 36.008327,211.372503 35.032593,212.101977 Z" id="Path" fill="#4285F4"></path>
                <path d="M32.906739,213.575355 L39.399939,214.119909 L39.358539,214.186377 C40.0301907,213.583413 40.660394,212.935818 41.244855,212.248005 L34.853955,212.235039 C34.200535,212.717761 33.551463,213.164533 32.906739,213.575355 Z" id="Path" fill="#4285F4"></path>
                <path d="M24.953715,216.788673 C24.999693,216.742125 25.048383,216.691626 25.096374,216.642207 C26.4204063,216.431325 27.7142084,216.061688 28.949811,215.541285 L29.126286,210.861603 C29.178636,210.742511 29.229509,210.622577 29.278905,210.501801 L29.091105,215.48205 C29.9792085,215.104817 30.8438834,214.674649 31.680471,214.193865 L31.077471,205.494378 C31.123971,205.470189 31.170771,205.445709 31.219011,205.420203 L31.821246,214.108446 L31.827159,214.1094 C32.8374589,213.520517 33.8153101,212.877649 34.756464,212.183589 L34.099848,203.622675 C34.146348,203.588616 34.192701,203.555328 34.2393,203.520594 L34.89588,212.080866 C35.104162,211.926524 35.309197,211.771372 35.510985,211.61541 L34.969323,202.949268 C35.015703,202.911237 35.062047,202.873113 35.108337,202.834443 L35.650404,211.507143 C36.484008,210.857343 37.258308,210.200979 37.958904,209.572269 L37.618182,200.857365 L37.689006,200.820687 C37.447053,200.883804 37.201086,200.958714 36.95307,201.04023 C37.4194858,200.507562 37.8390257,199.935607 38.207013,199.33074 L32.726739,202.166166 C32.3474041,202.886882 31.9207315,203.581672 31.449525,204.24597 C31.351581,204.338418 31.253625,204.430794 31.157121,204.527274 L31.164321,204.631314 C31.119588,204.690219 31.075095,204.749565 31.029849,204.807414 L31.020126,204.667137 C30.950949,204.738126 30.883494,204.81318 30.815103,204.886074 C31.5091115,204.019592 32.1181953,203.088385 32.633946,202.105308 L27.276882,195.116136 C27.313395,195.740871 27.374442,196.369731 27.453012,196.993461 C26.955649,196.184792 26.3516175,195.446808 25.657212,194.799417 L25.699416,194.85336 L24.461325,198.22683 C24.748341,199.381404 25.033725,200.68443 25.27173,202.073712 L27.471909,197.140338 C27.481959,197.217243 27.492609,197.293908 27.503181,197.370612 L25.308315,202.29201 C25.525461,203.595154 25.680936,204.854054 25.77474,206.06871 L28.409079,201.930837 C28.42413,201.990291 28.439163,202.049784 28.454214,202.108377 L25.791495,206.290836 C25.849427,207.101152 25.879322,207.888552 25.88118,208.653036 L29.101362,204.40446 C29.118558,204.460398 29.135328,204.514614 29.152011,204.568284 L25.897752,208.8618 L25.881915,208.828896 C25.881001,209.131774 25.875538,209.430674 25.865526,209.725596 L29.497863,205.635936 C29.517163,205.6929 29.535083,205.745378 29.551623,205.79337 L25.856409,209.95377 C25.852617,210.045195 25.849266,210.137022 25.844598,210.22767 C25.801368,211.096867 25.7108471,211.963066 25.573437,212.822421 L25.923975,212.467434 C25.857575,212.605184 25.792908,212.740984 25.729974,212.874834 L25.530498,213.076854 C25.507611,213.208179 25.481535,213.336462 25.456413,213.465654 C25.382823,213.627282 25.3119,213.784997 25.243644,213.938799 C25.309527,213.643743 25.370976,213.347094 25.423437,213.047679 L18.168396,208.0566 C20.061192,212.899155 23.625489,217.505484 23.853675,217.797867 C24.038904,217.451871 24.207213,217.09584 24.361737,216.732393 C24.406635,216.728145 24.45153,216.723915 24.496392,216.719211 C24.477861,216.763887 24.458592,216.80778 24.439692,216.852072 C24.417081,216.854451 24.394155,216.858072 24.371592,216.860331 C24.389172,216.865257 24.410265,216.870987 24.429381,216.876279 C24.320508,217.1301 24.207714,217.379781 24.086736,217.620768 C24.245067,217.478421 24.486273,217.253457 24.774636,216.967905 C26.480649,217.403385 31.076577,218.334705 35.011806,216.958932 L28.982472,215.647347 C27.6921946,216.193715 26.3388416,216.577113 24.953715,216.788673 Z M29.190465,209.159454 L29.335047,209.013054 L29.326788,209.232378 L29.182209,209.378808 L29.190465,209.159454 Z" id="Shape" fill="#4285F4"></path>
                <path d="M44.204454,202.906311 L44.255487,202.920501 C43.747974,201.680364 42.719304,200.916522 41.366487,200.627418 L41.026737,206.579118 C42.990576,204.505956 44.187354,202.928979 44.204454,202.906311 Z" id="Path" fill="#4285F4"></path>
                <path d="M31.557141,214.387407 C30.7998398,214.8162 30.0197543,215.203443 29.220348,215.547417 L35.192517,216.846552 L35.146917,216.9102 C35.9025816,216.63893 36.620831,216.273009 37.284507,215.821179 C37.544481,215.642469 37.799169,215.458302 38.048571,215.268678 L31.794825,214.250757 C31.715562,214.296498 31.636206,214.342821 31.557141,214.387407 Z" id="Path" fill="#4285F4"></path>
                <path d="M38.098425,209.4465 C39.131925,208.511745 40.068273,207.583914 40.880127,206.7333 L41.227725,200.645031 L41.298459,200.612787 C40.1196052,200.413897 38.9113257,200.478708 37.760511,200.802558 L38.098425,209.4465 Z" id="Path" fill="#4285F4"></path>
                <path d="M25.609986,194.756634 C24.9167316,194.103971 24.0692833,193.63778 23.146887,193.401654 C23.102154,193.391511 23.057658,193.382775 23.013201,193.374207 C23.124291,193.677978 23.764446,195.465327 24.410601,198.02439 L25.609986,194.756634 Z" id="Path" fill="#4285F4"></path>
                <path d="M25.204572,202.242756 L17.661174,197.865234 L17.668095,197.785785 C17.3858459,198.687596 17.1954379,199.615618 17.099772,200.555712 L25.603044,205.228419 C25.500468,204.176478 25.360539,203.171082 25.204572,202.242756 Z" id="Path" fill="#4285F4"></path>
                <path d="M17.085198,200.71419 L17.085498,200.714355 C17.088042,200.688225 17.088591,200.66043 17.091264,200.634411 L17.085198,200.71419 Z" id="Path" fill="#4285F4"></path>
                <path d="M17.023425,201.571947 L17.017896,201.651837 C17.019066,201.624645 17.022363,201.599157 17.023644,201.572058 L17.023425,201.571947 Z" id="Path" fill="#4285F4"></path>
                <path d="M25.619853,205.404144 L17.085492,200.714355 C17.058116,200.994707 17.037504,201.280607 17.023656,201.572055 L25.68372,206.172855 C25.664862,205.914311 25.643573,205.658074 25.619853,205.404144 Z" id="Path" fill="#4285F4"></path>
                <path d="M25.747149,210.019884 L17.346966,205.477716 C17.5521734,206.32018 17.8135928,207.14795 18.129468,207.955464 L18.140508,207.868743 L25.449054,212.896581 C25.6058375,211.944503 25.7053812,210.98388 25.747149,210.019884 Z" id="Path" fill="#4285F4"></path>
                <path d="M22.917603,193.399035 L22.956903,193.363551 C21.637755,193.128333 20.441895,193.588293 19.473504,194.576166 L24.318714,198.049218 C23.618925,195.280665 22.927599,193.425624 22.917603,193.399035 Z" id="Path" fill="#4285F4"></path>
                <path d="M24.370425,198.2556 L19.414098,194.70282 L19.424736,194.625807 C18.6256549,195.515039 18.0335671,196.570306 17.691057,197.715711 L25.173021,202.057611 C24.936741,200.684253 24.654303,199.396674 24.370425,198.2556 Z" id="Path" fill="#4285F4"></path>
                <path d="M25.754346,209.850768 C25.7977914,208.682175 25.7782632,207.51209 25.695846,206.345598 L17.014245,201.733374 C16.996081,202.203588 16.996014,202.686588 17.014044,203.182374 C17.0458958,203.891267 17.1423342,204.595778 17.302161,205.287153 L25.750353,209.855253 L25.754346,209.850768 Z" id="Path" fill="#4285F4"></path>
                <path d="M293.10003,186.812859 C293.016132,187.999623 292.884735,189.327045 292.681707,190.721859 L296.349384,186.654228 L296.369598,186.722328 C296.145292,185.743434 295.784148,184.801037 295.296819,183.922938 L295.320258,183.987282 L293.10003,186.812859 Z" id="Path" fill="#4285F4"></path>
                <path d="M293.114349,186.60465 L295.26507,183.867645 C294.807514,183.032649 294.145656,182.327341 293.341398,181.817688 C293.301996,181.794213 293.262372,181.772151 293.222748,181.750251 C293.234538,182.073504 293.290863,183.97119 293.114349,186.60465 Z" id="Path" fill="#4285F4"></path>
                <path d="M291.174018,197.334852 C291.079514,197.622622 290.981924,197.905196 290.881248,198.182574 L296.282658,195.015546 L296.290203,195.095031 C296.403069,194.602551 296.497063,194.110114 296.572185,193.61772 L291.178905,197.37102 L291.174018,197.334852 Z" id="Path" fill="#4285F4"></path>
                <path d="M291.925224,194.67669 L296.789934,190.664721 L296.803776,190.739796 C296.820928,189.41323 296.680915,188.0893 296.386662,186.795666 L292.649004,190.940766 C292.452714,192.24721 292.211454,193.492518 291.925224,194.67669 Z" id="Path" fill="#4285F4"></path>
                <path d="M292.565583,190.861872 L286.744659,184.367064 L286.775805,184.293639 C286.228629,185.064051 285.760694,185.887779 285.379131,186.752271 L292.021686,193.824501 C292.249284,192.792351 292.426971,191.792943 292.565583,190.861872 Z" id="Path" fill="#4285F4"></path>
                <path d="M285.31629,186.898479 L285.316527,186.898737 C285.327027,186.874677 285.336138,186.8484 285.346722,186.824469 L285.31629,186.898479 Z" id="Path" fill="#4285F4"></path>
                <path d="M291.983361,193.9968 L285.316527,186.898734 C285.203843,187.156892 285.09586,187.422419 284.992578,187.695315 L291.806478,194.747622 C291.86846,194.49591 291.927421,194.245636 291.983361,193.9968 Z" id="Path" fill="#4285F4"></path>
                <path d="M284.992425,187.695153 L284.96247,187.769403 C284.971989,187.743903 284.982996,187.72068 284.99259,187.695318 L284.992425,187.695153 Z" id="Path" fill="#4285F4"></path>
                <path d="M296.586468,193.522926 C296.719211,192.630145 296.791544,191.729422 296.802972,190.826898 L291.87249,194.893122 C291.677136,195.681666 291.462189,196.439747 291.227649,197.167365 L296.575995,193.445325 L296.586468,193.522926 Z" id="Path" fill="#4285F4"></path>
                <path d="M284.108472,194.028882 L289.505028,201.069561 C289.94842,200.212565 290.340017,199.32975 290.67771,198.425868 L284.092851,191.509644 C284.027591,192.374282 284.020349,193.242322 284.071173,194.107929 L284.108472,194.028882 Z" id="Path" fill="#4285F4"></path>
                <path d="M293.124162,181.744335 L293.172504,181.722711 C291.990666,181.091271 290.711199,181.159077 289.484886,181.79925 L293.019279,186.599871 C293.209527,183.7506 293.125446,181.7727 293.124162,181.744335 Z" id="Path" fill="#4285F4"></path>
                <path d="M290.706144,198.653595 C290.396385,199.466871 290.042561,200.262673 289.646244,201.037464 L295.074573,198.228918 L295.080027,198.307032 C295.489003,197.616114 295.808809,196.876173 296.03181,196.104876 C296.11801,195.801436 296.196697,195.497152 296.267871,195.192024 L290.802063,198.396771 C290.770176,198.482556 290.738625,198.568836 290.706144,198.653595 Z" id="Path" fill="#4285F4"></path>
                <path d="M293.004705,186.812127 L289.389225,181.901331 L289.423125,181.831383 C288.388326,182.430091 287.499058,183.250672 286.819275,184.234113 L292.592775,190.676013 C292.792596,189.296907 292.921977,187.985082 293.004705,186.812127 Z" id="Path" fill="#4285F4"></path>
                <path d="M290.736825,198.267261 C291.13935,197.169318 291.482447,196.050491 291.764625,194.915643 L284.933784,187.845813 C284.771168,188.287413 284.621815,188.746739 284.485725,189.223791 C284.29689,189.907815 284.170843,190.607639 284.10915,191.314563 L290.73165,198.270282 L290.736825,198.267261 Z" id="Path" fill="#4285F4"></path>
                <path d="M297.753069,205.894647 C296.931513,206.755152 295.983669,207.693747 294.937641,208.638483 L300.356901,207.844959 L300.329001,207.910308 C300.780611,207.013308 301.103538,206.057133 301.288254,205.069995 L301.265256,205.134522 L297.753069,205.894647 Z" id="Path" fill="#4285F4"></path>
                <path d="M301.124994,202.201374 C301.109613,202.158174 301.09317,202.115901 301.076616,202.073748 C300.879486,202.330224 299.712516,203.827734 297.896916,205.74342 L301.29909,205.007172 C301.479235,204.07223 301.419336,203.106874 301.124994,202.201374 L301.124994,202.201374 Z" id="Path" fill="#4285F4"></path>
                <path d="M289.558605,212.770128 C289.302275,212.931484 289.04688,213.086874 288.79242,213.236298 L294.972504,214.242198 L294.927642,214.308243 C295.328678,214.000917 295.715153,213.681593 296.087067,213.350271 L289.539288,212.801121 L289.558605,212.770128 Z" id="Path" fill="#4285F4"></path>
                <path d="M291.832593,211.201977 L298.138251,211.214796 L298.10097,211.281426 C298.960298,210.270659 299.696898,209.161679 300.29538,207.977655 L294.772845,208.786248 C293.788395,209.66726 292.808311,210.472503 291.832593,211.201977 Z" id="Path" fill="#4285F4"></path>
                <path d="M289.706739,212.675355 L296.199939,213.219909 L296.158521,213.286377 C296.83018,212.683409 297.460395,212.035814 298.044873,211.348005 L291.653943,211.335039 C291.000531,211.817761 290.351463,212.264533 289.706739,212.675355 Z" id="Path" fill="#4285F4"></path>
                <path d="M281.753715,215.888673 C281.799693,215.842125 281.848383,215.791626 281.896374,215.742207 C283.220406,215.531325 284.514208,215.161688 285.749811,214.641285 L285.926286,209.961603 C285.978636,209.842511 286.029509,209.722577 286.078905,209.601801 L285.891105,214.58205 C286.779208,214.204817 287.643883,213.774649 288.480471,213.293865 L287.877471,204.594378 C287.923971,204.570189 287.970771,204.545709 288.019011,204.520203 L288.621246,213.208446 L288.627159,213.2094 C289.637459,212.620517 290.61531,211.977649 291.556464,211.283589 L290.899848,202.722675 C290.946348,202.688616 290.992701,202.655328 291.0393,202.620594 L291.69588,211.180866 C291.90416,211.026524 292.109195,210.871372 292.310985,210.71541 L291.769323,202.049268 C291.815703,202.011237 291.862047,201.973113 291.908337,201.934443 L292.450383,210.607143 C293.284026,209.957343 294.058308,209.300979 294.758904,208.672269 L294.418182,199.957365 L294.489006,199.920687 C294.247053,199.983804 294.001068,200.058714 293.75307,200.14023 C294.219486,199.607562 294.639026,199.035607 295.007013,198.43074 L289.526739,201.266166 C289.147404,201.986882 288.720732,202.681672 288.249525,203.34597 C288.151581,203.438418 288.053625,203.530794 287.957121,203.627274 L287.964321,203.731314 C287.919588,203.790219 287.875095,203.849565 287.829849,203.907414 L287.820126,203.767137 C287.750949,203.838126 287.683494,203.91318 287.615103,203.986074 C288.309112,203.119592 288.918195,202.188385 289.433946,201.205308 L284.076882,194.216136 C284.113395,194.840871 284.174442,195.469731 284.253012,196.093461 C283.755649,195.284792 283.151618,194.546808 282.457212,193.899417 L282.499416,193.95336 L281.261325,197.32683 C281.548341,198.481404 281.833725,199.78443 282.07173,201.173712 L284.271909,196.240338 C284.281959,196.317243 284.292609,196.393908 284.303181,196.470612 L282.108315,201.39201 C282.325461,202.695154 282.480936,203.954054 282.57474,205.16871 L285.209079,201.030837 C285.22413,201.090291 285.239163,201.149784 285.254214,201.208377 L282.591495,205.390836 C282.649427,206.201152 282.679327,206.988552 282.681195,207.753036 L285.901377,203.50446 C285.918573,203.560398 285.935343,203.614614 285.952026,203.668284 L282.697782,207.961794 L282.681945,207.92889 C282.681031,208.231768 282.675568,208.530668 282.665556,208.82559 L286.297893,204.73593 C286.317193,204.792894 286.335113,204.845372 286.351653,204.893364 L282.656439,209.053764 C282.652647,209.145189 282.649296,209.237016 282.644628,209.327664 C282.601398,210.196861 282.510877,211.06306 282.373467,211.922415 L282.724005,211.567428 C282.657605,211.705178 282.592938,211.840978 282.530004,211.974828 L282.330528,212.176848 C282.307641,212.308173 282.281565,212.436456 282.256443,212.565648 C282.182843,212.727276 282.11192,212.884991 282.043674,213.038793 C282.109557,212.743737 282.171006,212.447088 282.223467,212.147673 L274.968426,207.156603 C276.861222,211.999158 280.425519,216.605487 280.653705,216.89787 C280.838934,216.551874 281.007243,216.195843 281.161767,215.832396 C281.206665,215.828148 281.25156,215.823918 281.296422,215.819214 C281.277891,215.86389 281.258622,215.907783 281.239722,215.952075 C281.217111,215.954454 281.194185,215.958075 281.171622,215.960334 C281.189202,215.96526 281.210295,215.97099 281.229411,215.976282 C281.120538,216.230103 281.007744,216.479784 280.886766,216.720771 C281.045097,216.578424 281.286303,216.35346 281.574666,216.067908 C283.280679,216.503388 287.876607,217.434708 291.811836,216.058935 L285.782502,214.74735 C284.492215,215.293719 283.138852,215.677116 281.753715,215.888673 Z M285.990465,208.259454 L286.135047,208.113054 L286.126788,208.332378 L285.982209,208.478808 L285.990465,208.259454 Z" id="Shape" fill="#4285F4"></path>
                <path d="M301.004436,202.006311 L301.055487,202.020501 C300.547992,200.780364 299.519304,200.016522 298.16652,199.727418 L297.826752,205.679118 C299.790594,203.605956 300.987372,202.028979 301.004436,202.006311 Z" id="Path" fill="#4285F4"></path>
                <path d="M288.357141,213.487407 C287.59984,213.9162 286.819754,214.303443 286.020348,214.647417 L291.992517,215.946552 L291.946917,216.0102 C292.702588,215.73893 293.420844,215.373009 294.084528,214.921179 C294.344462,214.742469 294.599149,214.558302 294.848589,214.368678 L288.594822,213.350757 C288.515562,213.396498 288.436206,213.442821 288.357141,213.487407 Z" id="Path" fill="#4285F4"></path>
                <path d="M294.898455,208.5465 C295.931955,207.611745 296.868303,206.683914 297.680121,205.8333 L298.027728,199.745043 L298.098444,199.712799 C296.919597,199.513909 295.711324,199.578719 294.560517,199.90257 L294.898455,208.5465 Z" id="Path" fill="#4285F4"></path>
                <path d="M282.409986,193.856634 C281.716732,193.203971 280.869283,192.73778 279.946887,192.501654 C279.902154,192.491511 279.857658,192.482775 279.813201,192.474207 C279.924291,192.777978 280.564446,194.565327 281.210601,197.12439 L282.409986,193.856634 Z" id="Path" fill="#4285F4"></path>
                <path d="M282.004572,201.342756 L274.461174,196.965234 L274.468095,196.885785 C274.185846,197.787596 273.995438,198.715618 273.899772,199.655712 L282.403044,204.328419 C282.300468,203.276478 282.160539,202.271082 282.004572,201.342756 Z" id="Path" fill="#4285F4"></path>
                <path d="M273.823425,200.671947 L273.817896,200.751837 C273.819066,200.724645 273.822363,200.699157 273.823644,200.672058 L273.823425,200.671947 Z" id="Path" fill="#4285F4"></path>
                <path d="M273.885198,199.81419 L273.885498,199.814355 C273.888042,199.788225 273.888591,199.76043 273.891264,199.734411 L273.885198,199.81419 Z" id="Path" fill="#4285F4"></path>
                <path d="M282.419853,204.504144 L273.885492,199.814355 C273.858118,200.094707 273.837506,200.380607 273.823656,200.672055 L282.48372,205.272855 C282.464862,205.014311 282.443573,204.758074 282.419853,204.504144 Z" id="Path" fill="#4285F4"></path>
                <path d="M282.547149,209.119884 L274.146966,204.577716 C274.352173,205.42018 274.613593,206.24795 274.929468,207.055464 L274.940508,206.968743 L282.249054,211.996581 C282.405837,211.044503 282.505381,210.08388 282.547149,209.119884 L282.547149,209.119884 Z" id="Path" fill="#4285F4"></path>
                <path d="M279.717603,192.499035 L279.756903,192.463551 C278.437755,192.228333 277.241895,192.688293 276.273504,193.676166 L281.118714,197.149218 C280.418925,194.380665 279.727599,192.525624 279.717603,192.499035 Z" id="Path" fill="#4285F4"></path>
                <path d="M281.170425,197.3556 L276.214089,193.802823 L276.224727,193.72581 C275.425646,194.615042 274.833558,195.670309 274.491048,196.815714 L281.973012,201.157614 C281.736741,199.784253 281.454303,198.496674 281.170425,197.3556 Z" id="Path" fill="#4285F4"></path>
                <path d="M282.554346,208.950768 C282.597791,207.782175 282.578263,206.61209 282.495846,205.445598 L273.814248,200.833374 C273.796082,201.303588 273.796015,201.786588 273.814047,202.282374 C273.845899,202.991267 273.942337,203.695778 274.102164,204.387153 L282.550356,208.955253 L282.554346,208.950768 Z" id="Path" fill="#4285F4"></path>
                <path d="M18.54345,218.1 L302.34345,218.1 L302.34345,222.160629 C302.34345,225.716995 299.460445,228.6 295.904079,228.6 L24.982821,228.6 C21.4264546,228.6 18.54345,225.716995 18.54345,222.160629 L18.54345,218.1 Z" id="Path" fill="#2F2E41"></path>
                <rect id="Rectangle" fill="#3F3D56" x="18.54345" y="214.8" width="283.8" height="5.7"></rect>
                <path d="M238.486395,19.7922 L241.745811,21.859146 L239.766861,18.261057 C240.327318,17.8138258 241.020914,17.5662673 241.737888,17.557557 C241.755398,17.557557 241.772881,17.55771 241.790337,17.558016 C242.0168,17.5616538 242.243132,17.5449164 242.466597,17.508006 L243.571158,18.208458 L243.097644,17.347518 C243.880267,17.0745927 244.556612,16.5613019 245.030052,15.880977 L247.007106,17.134722 L245.758143,14.863893 C246.914211,13.476033 248.472723,12.625041 250.187616,12.625041 C252.243516,12.625041 254.074932,13.847751 255.25722,15.752814 C255.968679,16.913149 257.247765,17.6028144 258.608163,17.559597 C258.644901,17.558241 258.681755,17.557561 258.718725,17.557557 C260.988384,17.557557 262.828308,20.130933 262.828308,23.305362 C262.828308,26.479791 260.988384,29.0531701 258.718725,29.0531701 C258.219607,29.0513061 257.728399,28.928328 257.287281,28.694796 C255.723648,27.934856 253.905308,27.899306 252.313167,28.597548 C250.96898,29.2016144 249.431255,29.2051739 248.084286,28.607337 C246.50488,27.922573 244.705964,27.957348 243.154203,28.702641 C242.716973,28.9311826 242.231257,29.0513954 241.737903,29.0531701 C239.468244,29.0531701 237.628323,26.479788 237.628323,23.305365 C237.615092,22.0808686 237.910175,20.872726 238.486395,19.7922 L238.486395,19.7922 Z" id="Path" fill="#F2F2F2"></path>
                <path d="M72.659025,36.673152 L74.732415,37.987983 L73.473558,35.699157 C73.8300768,35.4146618 74.2712882,35.257183 74.727372,35.251641 C74.738514,35.251641 74.749636,35.251741 74.760738,35.251941 C74.9048014,35.2542614 75.0487816,35.2436186 75.190938,35.220141 L75.893574,35.665713 L75.592374,35.118051 C76.0902188,34.9444379 76.5204568,34.6179213 76.821621,34.18515 L78.079269,34.982688 L77.284725,33.53814 C77.9623,32.6642124 78.9969205,32.1412693 80.102412,32.113956 C81.410223,32.113956 82.575225,32.891748 83.327304,34.103604 C83.7798783,34.8417188 84.5935328,35.2804298 85.458912,35.252937 C85.482286,35.252077 85.505731,35.251645 85.529247,35.251641 C86.973027,35.251641 88.143447,36.888624 88.143447,38.907951 C88.143447,40.927278 86.97303,42.564258 85.529247,42.564258 C85.2117463,42.5630734 84.899277,42.4848441 84.618672,42.336288 C83.6240087,41.852875 82.4673217,41.8302614 81.454524,42.274428 C80.5994567,42.6586859 79.6212763,42.6609506 78.764439,42.280656 C77.7597423,41.8450625 76.6154107,41.8671833 75.628299,42.34128 C75.3501635,42.4866611 75.0411852,42.5631307 74.727348,42.564258 C73.283568,42.564258 72.113148,40.927272 72.113148,38.907951 C72.1047446,38.1290195 72.2924662,37.3604944 72.659025,36.673152 Z" id="Path" fill="#F2F2F2"></path>
                <path d="M16.859025,43.721511 L18.932415,45.036342 L17.673558,42.747516 C18.0300727,42.463024 18.4712784,42.3055453 18.927357,42.3 C18.938499,42.3 18.949621,42.3001 18.960723,42.3003 C19.1047864,42.3026204 19.2487666,42.2919776 19.390923,42.2685 L20.093559,42.714072 L19.792359,42.16641 C20.2902032,41.9927958 20.7204409,41.6662795 21.021606,41.233509 L22.279254,42.031047 L21.484725,40.586499 C22.1623,39.7125714 23.1969205,39.1896283 24.302412,39.162315 C25.610223,39.162315 26.775225,39.940107 27.527304,41.151963 C27.9798783,41.8900778 28.7935328,42.3287888 29.658912,42.301296 C29.682284,42.300436 29.705729,42.300004 29.729247,42.3 C31.173027,42.3 32.343447,43.936983 32.343447,45.95631 C32.343447,47.975637 31.17303,49.612617 29.729247,49.612617 C29.4117463,49.6114324 29.099277,49.5332031 28.818672,49.384647 C27.8240087,48.901234 26.6673217,48.8786204 25.654524,49.322787 C24.7994567,49.7070449 23.8212763,49.7093096 22.964439,49.329015 C21.9597428,48.8934191 20.8154101,48.9155399 19.828299,49.389639 C19.5501635,49.5350201 19.2411852,49.6114897 18.927348,49.612617 C17.483568,49.612617 16.313148,47.975631 16.313148,45.95631 C16.3047446,45.1773785 16.4924662,44.4088534 16.859025,43.721511 L16.859025,43.721511 Z" id="Path" fill="#F2F2F2"></path>
                <path d="M91.716012,179.05914 L91.353879,179.421273 C91.353879,179.421273 91.47459,183.404742 91.595301,184.249719 C91.716012,185.094696 92.198856,186.543219 91.836723,187.629633 C91.47459,188.716047 91.353879,189.561012 91.47459,189.681723 C91.595301,189.802434 91.353879,190.285278 91.353879,190.285278 L92.319579,189.681723 L93.888825,186.060387 L93.164556,182.197629 L91.716012,179.05914 Z" id="Path" fill="#4285F4"></path>
                <path d="M91.716012,179.05914 L91.353879,179.421273 C91.353879,179.421273 91.47459,183.404742 91.595301,184.249719 C91.716012,185.094696 92.198856,186.543219 91.836723,187.629633 C91.47459,188.716047 91.353879,189.561012 91.47459,189.681723 C91.595301,189.802434 91.353879,190.285278 91.353879,190.285278 L92.319579,189.681723 L93.888825,186.060387 L93.164556,182.197629 L91.716012,179.05914 Z" id="Path" fill="#000000" opacity="0.1"></path>
                <path d="M98.113701,216.6003 C98.113701,216.6003 98.113701,215.272476 97.872279,215.031054 C97.630857,214.789632 97.268724,213.944655 96.78588,213.944655 C96.303036,213.944655 94.613079,214.427499 94.613079,214.54821 C94.626844,214.925032 94.5437212,215.299086 94.371657,215.634612 C94.130235,215.996745 92.802411,217.445277 94.130235,217.686699 C95.0219491,217.833259 95.9351783,217.615824 96.665169,217.083144 C96.78588,216.962433 97.268724,216.841722 97.389435,216.962433 C97.510146,217.083144 98.113701,216.6003 98.113701,216.6003 Z" id="Path" fill="#4285F4"></path>
                <path d="M101.493615,214.427508 L102.217881,215.755332 C102.217881,215.755332 102.459303,216.962442 102.821436,217.083153 L103.183572,217.083153 C103.183572,217.083153 103.545705,218.410977 104.390682,218.290266 C105.235659,218.169555 106.20135,217.686708 106.20135,217.445286 C106.20135,217.203864 106.20135,216.479586 105.839217,216.238176 C105.331465,215.823531 104.847831,215.3802 104.390682,214.910352 L103.787127,214.306797 L101.493615,214.427508 Z" id="Path" fill="#4285F4"></path>
                <path d="M92.229612,170.2101 C91.758132,170.450668 91.4329422,170.905327 91.357629,171.429249 C91.290429,172.291083 92.142408,173.103183 91.868334,173.923035 C91.712721,174.38853 91.228068,174.689973 91.088559,175.160535 C91.0151439,175.535832 91.0702269,175.924917 91.244931,176.265087 C91.4355158,176.73161 91.6675447,177.180105 91.938231,177.605187 C92.447061,178.404135 93.109338,179.162052 93.245331,180.099456 C93.3217873,180.43198 93.2341932,180.781001 93.00978,181.038015 C93.2547301,180.852649 93.5350154,180.719359 93.833394,180.646344 C95.067114,180.234013 96.2132985,179.595626 97.213377,178.763805 C97.5767284,178.508325 97.8502356,178.144742 97.99497,177.724806 C98.179212,176.98314 97.616328,176.24124 97.670301,175.47894 C97.704825,174.99132 97.986237,174.56073 98.145573,174.098586 C98.4254543,173.169019 98.3142408,172.165523 97.837611,171.319797 C97.4428381,170.501497 96.7295315,169.881071 95.864412,169.60353 C95.2059122,169.450245 94.5189404,169.470089 93.870387,169.66113 C93.3037027,169.778685 92.7529398,169.962959 92.229612,170.2101 L92.229612,170.2101 Z" id="Path" fill="#2F2E41"></path>
                <path d="M92.909148,176.903832 C93.4505859,175.897947 94.4968196,175.266717 95.639124,175.256739 C97.570503,175.256739 97.20837,175.136028 97.20837,175.136028 L96.604812,177.550251 L95.397702,178.757364 L92.909148,176.903832 Z" id="Path" fill="#4285F4"></path>
                <path d="M93.405969,174.351405 C93.405969,174.351405 94.492368,176.162073 93.768102,176.886339 C93.043836,177.610605 93.405969,178.334874 93.52668,178.455585 C93.647391,178.576296 97.027302,178.817718 97.027302,178.817718 L97.148013,177.127761 L97.510146,175.679229 C97.510146,175.679229 95.578767,175.317096 95.820192,174.472116 C96.061617,173.627136 93.405969,174.351405 93.405969,174.351405 Z" id="Path" fill="#FBBEBE"></path>
                <path d="M93.405969,174.351405 C93.405969,174.351405 94.492368,176.162073 93.768102,176.886339 C93.043836,177.610605 93.405969,178.334874 93.52668,178.455585 C93.647391,178.576296 97.027302,178.817718 97.027302,178.817718 L97.148013,177.127761 L97.510146,175.679229 C97.510146,175.679229 95.578767,175.317096 95.820192,174.472116 C96.061617,173.627136 93.405969,174.351405 93.405969,174.351405 Z" id="Path" fill="#000000" opacity="0.1"></path>
                <path d="M101.855748,191.4924 C101.726522,191.906746 101.565082,192.310348 101.372904,192.699513 C101.252193,192.820224 100.89006,191.854536 100.89006,191.854536 L101.252193,191.009556 L101.855748,191.4924 Z" id="Path" fill="#FBBEBE"></path>
                <polygon id="Path" fill="#FBBEBE" points="100.4676 186 100.9503 188.7765 93.7077 188.7765 94.0698 186"></polygon>
                <circle id="Oval" fill="#FBBEBE" cx="94.73379" cy="173.023584" r="2.293512"></circle>
                <path d="M95.216625,177.731319 C95.216625,177.731319 93.888804,177.85203 93.888804,177.610608 C93.888804,177.369186 93.768093,176.644908 93.526671,176.765628 C93.285249,176.886348 91.716003,177.00705 91.836714,177.369183 C91.957425,177.731316 92.198847,178.455585 91.957425,178.455585 C91.7465242,178.49867 91.562539,178.626403 91.4484541,178.808941 C91.3343693,178.991479 91.3001786,179.212832 91.35387,179.421285 C91.474581,180.024843 92.802402,183.646185 92.802402,183.646185 C92.802402,183.646185 92.923113,184.853298 93.285246,185.215431 C93.5882926,185.606165 93.5882926,186.152518 93.285246,186.543252 C93.043824,186.784674 93.888804,187.026099 94.250946,187.508952 C94.613088,187.991805 97.389435,187.629663 97.510146,187.508952 C97.630857,187.388241 100.527927,187.388241 100.769346,187.146819 C101.010765,186.905397 100.648635,186.181119 100.648635,186.181119 C100.648635,186.181119 100.527924,185.09472 100.648635,184.732587 C100.769346,184.370454 100.165788,178.455606 99.803655,178.093473 C99.441522,177.73134 100.890057,176.644938 100.890057,176.644938 C100.890057,176.644938 100.648635,175.679238 99.079389,175.558539 C99.079389,175.558539 98.596545,174.83427 98.113689,174.83427 C97.630833,174.83427 96.582459,175.39587 96.582459,175.39587 C96.582459,175.39587 96.303024,177.00708 95.940891,177.127791 C95.6546167,177.268057 95.4062261,177.47504 95.216625,177.731319 L95.216625,177.731319 Z" id="Path" fill="#4285F4"></path>
                <path d="M100.04508,176.282784 L100.89006,176.644917 C100.89006,176.644917 103.304283,184.129017 103.062861,185.577543 C102.821439,187.026069 102.217881,191.975235 101.855748,191.975235 C101.493615,191.975235 100.769349,191.250966 100.769349,191.250966 L100.769349,190.043856 C100.769349,189.802434 100.407213,189.078156 100.648638,189.078156 C100.890063,189.078156 101.252193,188.836734 101.010771,188.595312 C100.769349,188.35389 100.527927,187.991757 100.769349,187.629612 C101.010771,187.267467 101.131482,187.146768 101.010771,186.784632 C100.89006,186.422496 100.648638,186.060366 100.89006,185.818932 C101.131482,185.577498 100.286502,184.370397 100.286502,184.370397 L98.958681,179.059107 L99.200103,176.886306 L100.04508,176.282784 Z" id="Path" fill="#4285F4"></path>
                <path d="M100.527927,187.750344 C100.527927,187.750344 95.940903,187.388211 95.337345,187.388211 C94.733787,187.388211 93.379692,186.819804 93.379692,186.819804 C93.379692,186.819804 89.905344,190.285278 91.112457,195.958704 C92.31957,201.63213 92.560989,208.633377 93.285255,210.685467 C93.7774603,212.148491 94.1805699,213.639994 94.492368,215.151777 C94.492368,215.151777 95.699478,212.978976 97.99299,215.393199 C97.99299,215.393199 98.234415,213.582534 97.872279,212.858265 C97.510143,212.133996 97.027302,208.271241 97.027302,208.271241 C97.027302,208.271241 96.182325,202.114974 96.182325,201.390708 C96.182325,200.666442 95.699478,194.510172 95.820192,194.389461 C95.940906,194.26875 96.544458,199.097196 96.665169,199.942161 C96.78588,200.787126 97.148013,207.305541 97.510146,208.029807 C97.872279,208.754073 99.562236,214.548207 100.527927,214.910343 C101.493618,215.272479 104.752827,214.789632 104.632104,214.54821 C104.511381,214.306788 103.666404,212.978964 103.424994,212.616831 L102.459294,211.168299 L100.165794,203.322072 L101.252196,193.785891 C101.252196,193.785891 101.855748,187.629633 100.527927,187.750344 Z" id="Path" fill="#2F2E41"></path>
                <path d="M96.130899,172.721805 L93.189714,172.721805 C92.9319235,172.721805 92.7124443,172.534262 92.672238,172.279626 L92.379924,170.428293 L96.966948,170.428293 L96.556866,172.376193 C96.5144541,172.577622 96.3367449,172.721805 96.130899,172.721805 Z" id="Path" fill="#2F2E41"></path>
                <path d="M247.7145,172.150266 L252.35511,172.150266 L252.35511,178.779708 L252.35511,178.779708 C251.124344,178.779708 249.943987,178.290791 249.073704,177.420509 C248.20342,176.550226 247.7145,175.36987 247.7145,174.139104 L247.7145,172.150266 L247.7145,172.150266 Z" id="Path" fill="#2F2E41"></path>
                <polygon id="Path" fill="#A0616A" points="245.0076 210.9876 244.6761 212.6451 246.9963 212.6451 247.1067 210.9876"></polygon>
                <path d="M245.007477,212.313633 C245.007477,212.313633 244.565514,211.982163 244.344531,212.203143 C244.123548,212.424123 243.350115,216.733263 243.239631,216.843753 C243.129147,216.954243 239.81442,218.611605 240.587856,218.722095 C241.361292,218.832585 244.344537,218.943075 244.7865,218.722095 C245.228463,218.501115 246.443862,216.40179 246.443862,216.40179 L246.443862,218.280132 L246.664842,218.280132 C246.664842,218.280132 246.885825,216.2913 247.438278,215.738832 C247.990731,215.186364 246.996315,213.308037 246.996315,213.308037 C246.996315,213.308037 247.217295,212.092641 247.106805,212.092641 C246.996315,212.092641 245.007477,212.313633 245.007477,212.313633 Z" id="Path" fill="#4285F4"></path>
                <polygon id="Path" fill="#A0616A" points="251.8578 209.8275 251.5263 211.485 253.8468 211.485 253.9572 209.8275"></polygon>
                <path d="M249.206124,199.054752 C249.206124,199.054752 250.311024,202.36947 250.53201,202.700952 C250.752996,203.032434 251.526429,209.219904 251.526429,209.219904 C251.526429,209.219904 250.752993,210.4353 251.747409,210.545793 C252.741825,210.656286 252.299862,210.32481 252.962808,210.545793 C253.328107,210.683886 253.736989,210.642997 254.067708,210.4353 C254.067708,210.4353 254.399181,209.772357 254.178198,209.551377 C253.957215,209.330397 254.399181,203.584878 254.399181,203.584878 L253.736235,201.596046 L253.183782,195.298077 C253.183782,195.298077 253.846725,193.640715 253.515255,193.198752 C253.183785,192.756789 252.078876,193.530225 252.078876,193.530225 L249.206124,199.054752 Z" id="Path" fill="#2F2E41"></path>
                <path d="M247.769745,190.436478 C247.769745,190.436478 247.438272,193.972179 247.217289,194.193159 C246.996306,194.414139 244.565514,200.601621 244.565514,200.601621 C244.565514,200.601621 243.902571,201.375054 244.123551,204.247821 C244.344531,207.120588 244.896987,209.993337 244.896987,209.993337 C244.896987,209.993337 244.455024,211.650699 245.228457,211.650699 C246.00189,211.650699 246.333357,211.208736 246.664836,211.540209 C246.996315,211.871682 247.217289,211.540209 247.327782,211.319226 C247.438275,211.098243 247.880235,210.32481 247.880235,210.10383 C247.880235,209.88285 248.322198,204.24783 248.322198,204.24783 C248.322198,204.24783 251.968398,196.182012 252.299862,195.740049 C252.631326,195.298086 254.509662,192.867291 254.399187,191.209929 L247.769745,190.436478 Z" id="Path" fill="#2F2E41"></path>
                <circle id="Oval" fill="#A0616A" cx="250.53201" cy="173.199927" r="2.320305"></circle>
                <path d="M250.09005,175.188762 C250.09005,175.188762 250.973973,177.177594 251.084466,177.730062 C251.194959,178.28253 253.294266,176.625162 253.294266,176.625162 C253.294266,176.625162 252.189366,174.74682 252.520833,173.862894 L250.09005,175.188762 Z" id="Path" fill="#A0616A"></path>
                <path d="M253.625751,176.293668 C253.625751,176.293668 251.968389,175.078269 250.752993,177.619557 C249.537597,180.160845 249.206124,180.050352 249.206124,180.050352 C249.206124,180.050352 247.769745,180.492315 248.211708,183.586053 C248.653671,186.679791 246.775329,190.767948 247.548762,190.988931 C248.322195,191.209914 255.504093,192.42531 255.504093,191.541384 C255.504093,190.657458 254.841147,187.232247 255.393603,185.132922 C255.946059,183.033597 254.620167,175.741215 253.625751,176.293668 Z" id="Path" fill="#3F3D56"></path>
                <path d="M251.968389,176.846121 C251.968389,176.846121 250.642503,178.834953 250.752993,180.381822 C250.863483,181.928691 250.863483,182.923122 250.863483,182.923122 C250.863483,182.923122 248.653668,193.530222 249.095631,193.530222 C249.537594,193.530222 250.863483,194.082675 250.973973,193.751202 C251.084463,193.419729 253.846725,186.6798 253.846725,186.6798 C253.846725,186.6798 254.509671,179.939868 253.736235,178.392996 C252.962799,176.846121 251.968389,176.846121 251.968389,176.846121 Z" id="Path" fill="#3F3D56"></path>
                <path d="M249.316614,193.198743 C249.316614,193.198743 248.211714,196.955427 249.758577,197.065917 C251.30544,197.176407 250.42152,193.419717 250.42152,193.419717 L249.316614,193.198743 Z" id="Path" fill="#A0616A"></path>
                <path d="M252.257391,210.624339 C252.257391,210.624339 251.870352,210.334062 251.676834,210.52758 C251.483316,210.721098 250.806003,214.494708 250.709244,214.591467 C250.612485,214.688226 247.709706,216.139614 248.387022,216.236367 C249.064338,216.33312 251.676822,216.429885 252.063873,216.236367 C252.450924,216.042849 253.515273,214.204422 253.515273,214.204422 L253.515273,215.849322 L253.708791,215.849322 C253.708791,215.849322 253.902309,214.107654 254.386104,213.623859 C254.869899,213.140064 253.999068,211.495155 253.999068,211.495155 C253.999068,211.495155 254.192586,210.430806 254.095827,210.430806 C253.999068,210.430806 252.257391,210.624339 252.257391,210.624339 Z" id="Path" fill="#4285F4"></path>
                <path d="M249.385023,171.6795 C249.458679,171.589558 249.55527,171.521191 249.664584,171.481629 C249.766698,171.463134 249.871897,171.47219 249.969348,171.507864 C250.662195,171.709992 251.263109,172.146925 251.668998,172.743705 C251.747838,172.895757 251.866149,173.023787 252.011517,173.114361 C252.106259,173.142693 252.19879,173.177954 252.28836,173.219859 C252.546711,173.390583 252.392688,173.786295 252.244161,174.058017 C251.863895,174.756765 251.688301,175.548555 251.737521,176.34255 C251.734344,176.480648 251.775026,176.616199 251.853723,176.729724 C251.978837,176.845492 252.142409,176.910795 252.312852,176.913024 C252.849101,176.980366 253.389479,177.009281 253.929852,176.99955 C254.458692,176.99001 255.045441,176.915031 255.388083,176.512095 C255.756444,176.078913 255.698673,175.415514 255.459045,174.899847 C255.219417,174.38418 254.829798,173.953218 254.553045,173.456478 C254.290566,172.93162 254.083377,172.380891 253.93482,171.813174 C253.743316,171.088662 253.434769,170.40029 253.021362,169.775241 C252.599432,169.145799 251.935032,168.719868 251.186922,168.599226 C250.183167,168.487227 249.257568,169.10535 248.450754,169.712904 C247.54482,170.395104 246.580776,171.239046 246.508053,172.370778 C246.449133,173.287671 246.999684,174.117147 247.287324,174.989742 C247.731357,176.336772 247.545324,177.800013 247.354614,179.205459 C248.172693,178.715445 249.09825,178.034874 249.04464,177.082773 C249.008472,176.44038 248.523783,175.92771 248.222082,175.35942 C247.392486,173.796771 248.338362,172.749132 249.385023,171.6795 Z" id="Path" fill="#2F2E41"></path>
                <path d="M282.014406,182.972484 C282.716572,181.74687 283.079385,180.356253 283.065486,178.943817 C283.065486,175.302954 280.81086,172.351452 278.02965,172.351452 C275.24844,172.351452 272.993814,175.302954 272.993814,178.943817 C272.979922,180.356252 273.342734,181.746867 274.044894,182.972484 C272.643454,185.475447 272.643454,188.526864 274.044894,191.029827 C272.643454,193.532787 272.643454,196.584201 274.044894,199.087161 C272.643454,201.59012 272.643454,204.641533 274.044894,207.144492 C273.342735,208.370108 272.979923,209.760722 272.993814,211.173156 C272.993814,214.814019 275.248431,217.765524 278.02965,217.765524 C280.810869,217.765524 283.065486,214.814019 283.065486,211.173156 C283.079384,209.760721 282.716572,208.370105 282.014406,207.144492 C283.415846,204.641533 283.415846,201.59012 282.014406,199.087161 C283.415846,196.584201 283.415846,193.532787 282.014406,191.029827 C283.415846,188.526864 283.415846,185.475447 282.014406,182.972484 L282.014406,182.972484 Z" id="Path" fill="#3F3D56"></path>
                <ellipse id="Oval" fill="#3F3D56" cx="278.029647" cy="170.886489" rx="5.035836" ry="6.592365"></ellipse>
                <ellipse id="Oval" fill="#3F3D56" cx="278.029647" cy="162.829155" rx="5.035836" ry="6.592365"></ellipse>
                <path d="M296.881281,107.690241 C297.56926,106.81434 298.195888,105.891943 298.756686,104.929641 L285.524607,102.756471 L299.835453,102.862902 C302.610018,96.8261313 302.776625,89.9132907 300.2961,83.749866 L281.0964,93.709713 L298.803,80.694075 C294.281478,72.8806648 285.775873,68.2455973 276.75902,68.6813691 C267.742166,69.117141 259.723169,74.5508193 255.976182,82.7638349 C252.229195,90.9768505 253.381332,100.594634 258.962175,107.690247 C257.889772,109.05348 256.967444,110.528341 256.211175,112.089273 L273.387345,121.0128 L255.072756,114.8661 C252.46021,122.58907 253.923101,131.108994 258.962169,137.518164 C251.183987,147.407007 252.312487,161.613291 261.554344,170.150118 C270.796201,178.686945 285.047237,178.686945 294.289094,170.150118 C303.530951,161.613291 304.659451,147.407007 296.881269,137.518164 C303.764161,128.766704 303.764161,116.441683 296.881269,107.690223 L296.881281,107.690241 Z" id="Path" fill="#F2F2F2"></path>
                <path d="M253.799619,122.60421 C253.791671,128.015085 255.610641,133.270253 258.962169,137.518182 C251.183987,147.407025 252.312487,161.613309 261.554344,170.150136 C270.796201,178.686963 285.047237,178.686963 294.289094,170.150136 C303.530951,161.613309 304.659451,147.407025 296.881269,137.518182 C300.114312,133.413831 253.799619,119.89686 253.799619,122.60421 Z" id="Path" fill="#F2F2F2"></path>
                <path d="M296.881281,107.690241 C297.56926,106.81434 298.195888,105.891943 298.756686,104.929641 L285.524607,102.756471 L299.835453,102.862902 C302.610018,96.8261313 302.776625,89.9132907 300.2961,83.749866 L281.0964,93.709713 L298.803,80.694075 C294.281478,72.8806648 285.775873,68.2455973 276.75902,68.6813691 C267.742166,69.117141 259.723169,74.5508193 255.976182,82.7638349 C252.229195,90.9768505 253.381332,100.594634 258.962175,107.690247 C257.889772,109.05348 256.967444,110.528341 256.211175,112.089273 L273.387345,121.0128 L255.072756,114.8661 C252.46021,122.58907 253.923101,131.108994 258.962169,137.518164 C251.183987,147.407007 252.312487,161.613291 261.554344,170.150118 C270.796201,178.686945 285.047237,178.686945 294.289094,170.150118 C303.530951,161.613291 304.659451,147.407007 296.881269,137.518164 C303.764161,128.766704 303.764161,116.441683 296.881269,107.690223 L296.881281,107.690241 Z" id="Path" fill="#57B894"></path>
                <path d="M253.799619,122.60421 C253.791671,128.015085 255.610641,133.270253 258.962169,137.518182 C251.183987,147.407025 252.312487,161.613309 261.554344,170.150136 C270.796201,178.686963 285.047237,178.686963 294.289094,170.150136 C303.530951,161.613309 304.659451,147.407025 296.881269,137.518182 C300.114312,133.413831 253.799619,119.89686 253.799619,122.60421 Z" id="Path" fill="#000000" opacity="0.1"></path>
                <path d="M28.514406,182.972484 C29.2165725,181.74687 29.5793848,180.356253 29.565486,178.943817 C29.565486,175.302954 27.31086,172.351452 24.52965,172.351452 C21.74844,172.351452 19.493814,175.302954 19.493814,178.943817 C19.4799225,180.356252 19.8427343,181.746867 20.544894,182.972484 C19.1434539,185.475447 19.1434539,188.526864 20.544894,191.029827 C19.1434538,193.532787 19.1434538,196.584201 20.544894,199.087161 C19.1434543,201.59012 19.1434543,204.641533 20.544894,207.144492 C19.8427346,208.370108 19.4799228,209.760722 19.493814,211.173156 C19.493814,214.814019 21.748431,217.765524 24.52965,217.765524 C27.310869,217.765524 29.565486,214.814019 29.565486,211.173156 C29.5793844,209.760721 29.2165721,208.370105 28.514406,207.144492 C29.9158457,204.641533 29.9158457,201.59012 28.514406,199.087161 C29.9158462,196.584201 29.9158462,193.532787 28.514406,191.029827 C29.9158461,188.526864 29.9158461,185.475447 28.514406,182.972484 L28.514406,182.972484 Z" id="Path" fill="#3F3D56"></path>
                <ellipse id="Oval" fill="#3F3D56" cx="24.529647" cy="170.886489" rx="5.035836" ry="6.592365"></ellipse>
                <ellipse id="Oval" fill="#3F3D56" cx="24.529647" cy="162.829155" rx="5.035836" ry="6.592365"></ellipse>
                <path d="M43.381281,107.690241 C44.0692605,106.81434 44.6958881,105.891943 45.256686,104.929641 L32.024607,102.756471 L46.335453,102.862902 C49.1100177,96.8261313 49.2766255,89.9132907 46.7961,83.749866 L27.5964,93.709713 L45.303,80.694075 C40.7814783,72.8806648 32.2758728,68.2455973 23.2590196,68.6813691 C14.2421665,69.117141 6.22316931,74.5508193 2.47618219,82.7638349 C-1.27080492,90.9768505 -0.118668314,100.594634 5.462175,107.690247 C4.38977218,109.05348 3.46744436,110.528341 2.711175,112.089273 L19.887345,121.0128 L1.572756,114.8661 C-1.03979007,122.58907 0.42310107,131.108994 5.462169,137.518164 C-2.31601311,147.407007 -1.18751253,161.613291 8.05434443,170.150118 C17.2962014,178.686945 31.5472366,178.686945 40.7890936,170.150118 C50.0309505,161.613291 51.1594511,147.407007 43.381269,137.518164 C50.2641608,128.766704 50.2641608,116.441683 43.381269,107.690223 L43.381281,107.690241 Z" id="Path" fill="#F2F2F2"></path>
                <path d="M0.299618508,122.60421 C0.291671412,128.015085 2.11064118,133.270253 5.462169,137.518182 C-2.31601311,147.407025 -1.18751253,161.613309 8.05434443,170.150136 C17.2962014,178.686963 31.5472366,178.686963 40.7890936,170.150136 C50.0309505,161.613309 51.1594511,147.407025 43.381269,137.518182 C46.614312,133.413831 0.299618508,119.89686 0.299618508,122.60421 Z" id="Path" fill="#F2F2F2"></path>
                <path d="M43.381281,107.690241 C44.0692605,106.81434 44.6958881,105.891943 45.256686,104.929641 L32.024607,102.756471 L46.335453,102.862902 C49.1100177,96.8261313 49.2766255,89.9132907 46.7961,83.749866 L27.5964,93.709713 L45.303,80.694075 C40.7814783,72.8806648 32.2758728,68.2455973 23.2590196,68.6813691 C14.2421665,69.117141 6.22316931,74.5508193 2.47618219,82.7638349 C-1.27080492,90.9768505 -0.118668314,100.594634 5.462175,107.690247 C4.38977218,109.05348 3.46744436,110.528341 2.711175,112.089273 L19.887345,121.0128 L1.572756,114.8661 C-1.03979007,122.58907 0.42310107,131.108994 5.462169,137.518164 C-2.31601311,147.407007 -1.18751253,161.613291 8.05434443,170.150118 C17.2962014,178.686945 31.5472366,178.686945 40.7890936,170.150118 C50.0309505,161.613291 51.1594511,147.407007 43.381269,137.518164 C50.2641608,128.766704 50.2641608,116.441683 43.381269,107.690223 L43.381281,107.690241 Z" id="Path" fill="#57B894"></path>
                <path d="M0.299618508,122.60421 C0.291671412,128.015085 2.11064118,133.270253 5.462169,137.518182 C-2.31601311,147.407025 -1.18751253,161.613309 8.05434443,170.150136 C17.2962014,178.686963 31.5472366,178.686963 40.7890936,170.150136 C50.0309505,161.613309 51.1594511,147.407025 43.381269,137.518182 C46.614312,133.413831 0.299618508,119.89686 0.299618508,122.60421 Z" id="Path" fill="#000000" opacity="0.1"></path>
                <polygon id="Path" fill="#57B894" points="174.1356 106.3668 162.1668 118.3356 156.4959 112.665 154.2882 114.8727 162.1593 122.7438 176.3436 108.5745"></polygon>
                <polygon id="Path" fill="#57B894" points="212.2356 79.0668 200.2668 91.0356 194.5959 85.365 192.3882 87.5727 200.2593 95.4438 214.4436 81.2745"></polygon>
            </g>
        </g>
    </g>
</svg>